<svg width="413" height="366" viewBox="0 0 413 366" fill="none" xmlns="http://www.w3.org/2000/svg">
<path d="M200.169 19.7342C204.284 19.9573 208.825 19.6072 213.144 19.7749L213.796 20.0326C213.979 20.6202 213.993 20.6385 214.04 21.29L214.231 21.2158L214.181 20.0522C214.659 19.7128 216.194 19.8337 216.75 20.0636C216.887 20.4423 216.99 20.9706 217.369 21.089C218.255 21.3642 219.602 21.1559 220.533 21.0894C222.167 21.1472 224.25 20.87 224.833 22.624C225.355 22.6385 225.672 22.6395 226.196 22.7288C226.45 23.2729 226.359 23.4628 226.347 24.1121C226.934 24.183 228.799 24.2722 229.098 24.6131C229.187 25.318 229.076 25.559 229.475 25.928C230.29 25.7286 229.925 25.6755 230.62 26.0016C230.768 26.9716 230.854 27.7693 230.941 28.7408C231.524 28.8013 231.235 28.8335 231.82 28.5557C231.887 28.175 231.909 28.0425 231.919 27.6578L232.058 27.7449L232.066 27.979C232.119 29.1291 232.258 30.0375 232.427 31.1765L232.593 30.6539C233.085 30.4414 233.125 30.3478 233.623 30.468C233.746 31.3481 233.752 31.7663 233.742 32.6589C233.653 33.7937 233.629 39.9968 233.92 40.9314L235.335 40.9421L235.373 43.5363C235.279 47.5708 235.23 53.5846 235.375 57.6517C235.24 61.8673 235.275 66.3182 235.337 70.5396C235.565 86.0801 235.099 101.735 235.398 117.265C235.392 137.258 235.178 157.58 235.39 177.533C235.333 182.019 235.263 186.976 235.414 191.451C235.378 192.845 235.351 194.153 235.38 195.546C235.38 201.076 235.16 252.392 235.672 253.408L236.029 252.807L236.489 253.13L236.755 253.037C236.759 254.428 236.539 256.916 237.34 257.919C237.91 258.106 237.62 258.096 238.237 257.874C238.562 259.199 238.191 260.098 238.63 261.026C239.159 261.235 238.983 261.175 239.576 261.209C239.895 261.748 239.782 261.721 239.784 262.457C239.675 263.958 239.828 264.266 239.856 265.593C240.094 265.79 240.201 265.734 240.605 265.8C241.282 265.514 241.028 265.746 241.361 265.048L241.494 265.512L241.694 265.603C243.373 266.075 242.706 266.26 242.901 267.912L242.918 268.633C242.912 269.178 242.897 269.75 242.912 270.293C243.688 270.319 243.672 270.452 244.168 270.099L244.297 268.756C244.39 269.587 244.259 269.755 244.698 270.265L245.852 270.589C246.094 271.031 246.047 271.103 246.078 271.622L246.045 273.277C246.065 274.033 245.926 274.293 246.305 274.741L247.503 274.801C248.463 274.856 248.481 274.687 249.018 275.185C249.016 275.672 249.026 276.074 248.959 276.562L250.27 276.513C250.764 277.403 250.329 278.431 250.899 279.282C251.797 279.352 251.647 279.193 252.077 279.693L252.139 280.917C253.069 280.901 252.956 280.744 253.458 281.203L253.551 282.175C254.495 282.699 254.537 282.014 255.076 282.574L255.144 283.804C256.183 284.429 256.641 282.954 256.56 285.234C257.639 286.069 258.254 284.103 258.163 286.926C258.808 286.918 259.161 286.799 259.629 287.075C259.593 287.682 259.571 287.777 259.897 288.331L260.212 288.4L260.748 287.853L260.94 287.912C261.172 288.371 260.994 288.232 261.39 288.438C262.218 288.583 262.255 288.434 262.636 288.924L262.692 290.023L262.727 291.531L264.251 291.557C265.177 291.575 265.203 291.416 265.798 291.858L265.941 292.884L267.137 292.971C267.145 293.283 267.083 294.088 267.282 294.271C268.184 295.102 270.737 294.943 271.902 294.783L272.086 295.102C271.493 297.003 275.26 295.471 276.375 296.388L276.373 297.489C277.95 297.975 283.121 297.215 283.867 298.52C283.52 298.923 283.528 298.798 282.844 298.903C285.891 299.048 290.068 299.191 293.068 298.899C292.796 298.556 292.907 298.746 292.839 298.262C293.899 297.348 302.24 297.895 302.911 297.455L302.498 297.153L302.637 296.798C304.666 295.586 306.832 296.247 309.433 295.917C309.276 295.65 309.32 295.705 309.25 295.39C310.379 293.977 312.26 295.126 314.104 294.336C314.188 293.834 314.174 293.858 314.424 293.416C315.237 292.987 316.082 293.057 317.026 293.023C318.675 291.708 319.02 291.825 321.16 291.37L321.521 290.416C322.13 289.922 322.529 290.112 323.541 289.878L323.559 288.954C324.247 288.377 325.237 288.906 326.417 288.305L326.494 287.226C327.028 286.926 328.248 286.968 329.033 286.885C329.549 286.349 329.389 286.567 329.486 285.672C329.888 285.361 330.325 285.44 330.86 285.438L331.063 284.476C331.616 283.933 331.622 284.087 332.535 283.899L332.664 283.24C334.397 281.923 335.669 280.921 337.042 279.205C337.553 278.741 337.926 278.368 338.396 277.866C338.692 277.405 338.73 276.977 338.902 276.455L339.805 276.283C340.156 275.836 340.124 274.485 340.285 273.662L340.816 273.971L341.304 273.84C341.794 273.196 341.699 272.926 341.834 272.059C342.239 271.658 342.114 271.787 342.852 271.733C343.197 271.299 343.127 269.644 343.276 268.779C343.802 268.694 343.8 268.716 344.33 268.724C345.409 267.391 343.762 265.512 345.768 264.72C346.363 264.484 346.18 260.961 346.329 259.8L347.517 259.866C347.73 259.213 347.704 257.287 347.718 256.485C348.418 256.618 348.436 256.598 349.158 256.537C349.396 255.237 349.366 251.991 349.281 250.632C349.071 248.21 349.281 242.792 349.305 240.153C349.638 236.787 349.584 234.126 349.689 230.869C350.267 230.821 350.017 230.74 350.483 230.986C350.064 233.226 350.231 233.608 350.576 235.815C350.673 232.743 350.709 229.67 350.689 226.597C350.713 223.867 350.761 221.11 350.673 218.382L350.679 146.564C350.842 144.896 350.697 141.114 350.677 139.345C350.79 136.489 350.527 133.272 350.727 130.47C350.761 129.476 351.096 128.174 350.265 127.627C349.826 127.671 349.687 127.708 349.281 127.517L349.203 126.082C349.209 125.681 349.285 125.007 349.324 124.586L347.599 124.603C347.62 124.114 347.575 123.431 347.559 122.925C347.073 122.993 346.541 122.98 346.045 122.99C344.873 122.961 343.736 122.816 342.677 123.238C342.265 123.685 342.213 123.777 341.898 124.268C341.495 124.385 341.09 124.492 340.68 124.589L340.231 124.757C340.081 125.241 340.096 125.263 340.077 125.775C339.269 126.391 339.067 125.505 338.567 126.299L338.563 127.323C337.72 127.903 337.532 127.046 336.978 127.839L336.994 128.911C336.47 129.426 335.806 128.683 335.338 129.442C335.246 129.591 334.036 130.663 334.04 130.705C334.193 132.771 332.86 131.735 332.628 132.027C331.547 133.392 333.358 133.197 330.995 133.585L329.71 133.662C329.351 134.069 329.377 134.667 329.315 135.243L329.222 136.428L328.825 136.377L329.115 135.596L329.012 135.381L328.343 135.305C328.097 136.305 328.173 136.755 327.804 137.865C327.222 137.87 327.129 137.877 326.532 137.772L326.5 138.032C326.415 138.68 326.443 139.021 326.046 139.528C325.169 139.879 324.866 139.915 323.924 140.063L324.136 140.474C323.874 140.675 324.037 140.591 323.61 140.652C323.071 142.441 322.521 142.675 320.71 143.073L320.881 143.438C319.798 146.432 318.357 145.189 317.532 146.173L317.467 147.113C316.316 148.066 315.898 146.49 315.822 148.71C314.874 149.31 314.801 148.584 314.452 149.198C314.436 150.488 314.509 150.405 313.073 150.538C312.434 151.38 313.301 151.328 312.466 152.02L311.488 152.032C311.274 153.478 311.702 153.607 310.052 153.548C309.389 154.411 310.232 154.454 309.461 154.954L308.534 154.979C307.876 155.71 308.645 155.938 307.951 156.511L306.838 156.555C306.81 157.056 306.799 157.363 306.697 157.863C306.13 158.063 306.013 158.035 305.42 158.063C304.793 158.946 305.571 158.916 304.928 159.543L303.815 159.581C303.724 160.096 303.72 160.296 303.7 160.808C303.254 161.071 302.821 160.996 302.284 160.989C302.048 161.45 302.115 161.81 302.127 162.334L301.909 162.562L300.784 162.574C300.663 163.062 300.681 163.336 300.675 163.831C300.219 164.095 299.774 164.035 299.233 164.044C299.058 164.593 299.09 164.799 299.094 165.363C298.154 166.277 297.604 164.397 297.642 166.975C296.92 167.512 296.725 166.835 296.089 167.337L296.085 168.382C295.182 169.238 294.579 167.554 294.51 169.744L294.504 169.951L294.248 170.2L293.314 170.164C293.008 170.519 293.089 170.306 293.016 170.784C292.468 171.294 292.784 171.125 292.014 171.269L291.641 171.035C291.697 170.582 291.697 170.604 291.897 170.191L291.459 170.146C290.973 170.932 291.415 171.148 291.268 171.247C290.068 172.055 289.826 170.962 290.025 173.218C289.997 174.074 290.156 174.168 289.715 174.593L288.519 174.639C287.66 174.606 287.543 174.444 286.99 174.828C286.875 175.479 286.938 175.659 287.039 176.297L287.051 176.533C286.519 176.259 286.442 176.167 285.841 176.132C285.242 176.798 285.659 176.869 285.452 177.76L284.216 177.876C283.792 178.395 283.935 178.412 283.889 179.25C283.853 180.147 284.014 180.219 283.56 180.732L282.421 180.793C281.501 180.836 281.378 180.667 280.896 181.143L280.838 182.206L279.696 182.308C279.251 182.85 279.412 182.948 279.388 183.852C279.325 184.555 279.434 184.703 279.079 185.182C278.002 185.118 277.579 185.434 277.718 186.59C277.151 186.87 276.99 186.842 276.371 186.877C275.445 186.893 275.322 186.717 274.852 187.188L274.798 188.283C274.754 189.159 274.903 189.161 274.465 189.713C274.084 189.772 273.709 189.833 273.326 189.881L272.187 189.896C271.692 190.425 271.866 190.442 271.828 191.407C271.658 192.274 271.811 192.323 271.289 192.71L270.565 192.75C269.541 194 271.235 194.428 268.912 194.392C268.633 194.817 268.66 195.171 268.619 195.684C268.036 195.935 267.329 195.647 267.226 195.99C266.83 197.303 267.575 197.386 265.885 197.406C265.134 198.546 266.524 198.926 264.33 198.827C263.757 199.4 264.213 200.015 264.05 200.192C263.142 201.182 262.767 199.425 262.529 201.844C261.325 201.594 260.575 202.064 259.702 201.695C259.724 201.36 259.813 201.058 259.911 200.738L259.522 200.5C258.982 200.486 258.911 200.491 258.435 200.75L258.167 200.661L258.086 196.134C258.25 193.859 258.111 189.522 258.095 187.126C258.068 182.693 258.175 177.839 257.994 173.439L257.897 173.44C257.893 175.698 258.151 181.723 257.554 183.525C258.115 184.391 258.06 190.119 257.546 191.048L257.288 190.875C256.637 189.567 257.213 187.933 257.268 186.611C257.175 186.529 257.08 186.446 256.987 186.364C256.975 184.343 256.971 181.319 256.935 179.424C256.762 170.473 256.677 161.52 256.679 152.567C256.669 150.225 256.81 141.979 256.54 140.004L256.495 136.288C256.59 135.155 256.528 133.179 256.526 131.982C256.522 131.685 256.522 131.389 256.524 131.092C256.592 125.804 256.84 128.519 258.117 127.272C258.159 126.768 258.191 125.809 258.52 125.487C259.76 124.274 261.222 123.032 262.448 121.828L276.859 107.501C278.724 105.613 279.712 105.337 281.011 103.055C282.842 102.967 282.612 101.41 283.963 100.307C284.21 100.108 284.734 100.18 285.069 100.172C285.686 99.5911 284.984 99.4328 285.549 98.5938C286.053 98.5903 286.111 98.6508 286.512 98.3778C286.712 97.8473 286.791 97.4701 287.21 97.0938C287.716 97.1156 287.797 97.1716 288.247 96.9746L288.529 95.6626C288.745 95.5896 289.481 95.5047 289.749 95.4668C289.991 95.0589 289.985 94.8881 290.07 94.4203L290.78 94.1229C291.27 93.4428 292.004 92.7932 292.47 92.0933C293.379 90.7294 293.282 91.5055 294.405 90.7742C294.412 90.7702 294.428 89.5283 294.728 89.5495C296.587 89.6795 295.549 88.7379 296.323 87.8991L297.14 87.8769C297.834 87.4339 298.582 85.8589 299.338 84.9746C299.881 84.9464 299.949 84.9639 300.459 84.8044C300.59 84.2537 300.615 84.1116 300.844 83.5787C301.322 83.5305 301.546 83.565 301.929 83.2899C302.008 82.9474 302.157 82.2971 302.325 81.9424C302.325 81.9412 303.297 81.7099 303.295 81.7105C304.908 79.7143 306.86 78.0799 308.52 76.1749C308.808 75.8438 309.288 75.8077 309.736 75.6744L309.77 74.5529C310.415 74.4299 310.609 74.4265 311.196 74.0984C311.319 73.6089 311.343 73.4861 311.547 73.0294L312.464 72.9112C313.204 72.3656 312.373 72.265 312.974 71.3637L313.932 71.377C314.755 70.9001 314.247 70.4061 314.473 70.2045C315.804 69.0227 317.328 67.8528 318.699 66.7067C318.762 66.6545 319.026 65.6786 319.066 65.5332C320.851 64.3619 324.527 60.5103 326.365 58.9146C326.506 58.7918 326.149 58.2123 326.637 57.6543C327.24 57.7029 327.443 57.7497 328.048 57.6136C328.446 55.1059 331.019 55.808 331.346 53.3462C333.564 52.9577 332.152 52.5727 332.957 51.7799C333.457 51.7233 333.77 51.7497 334.141 51.4198C334.163 50.9552 334.183 50.7032 334.253 50.2445C334.274 50.2398 335.183 50.0344 335.183 50.0338C343.492 42.0517 351.618 33.8712 359.903 25.8598C359.826 25.9342 361.171 25.7084 361.177 25.7066L361.391 24.5131C362.04 24.209 363.363 24.1875 364.135 24.1292C363.291 23.7532 363.635 24.3232 363.155 23.6185C364.012 22.3276 366.521 23.0136 367.041 22.48C368.467 21.021 369.576 21.1257 371.78 21.2176C373.198 21.2682 373.997 21.2299 375.418 21.1085C376.747 21.3196 385.086 21.5485 386.256 21.2974C387.796 21.345 388.121 21.096 388.909 22.5411C389.91 22.8397 391.106 22.5934 391.743 22.9154L391.735 24.1254C392.491 24.2181 394.145 24.2582 394.647 24.5897L394.667 25.7499C395.082 25.9973 395.457 25.8786 395.959 25.8195C396.595 26.1716 396.526 26.3772 396.52 27.1465C397.44 27.2981 398.279 27.4279 399.206 27.539C399.22 28.0316 399.238 28.3498 399.293 28.8493C400.376 29.6112 400.94 27.9568 400.866 30.2682L401.084 30.5071L402.116 30.4466C402.653 31.3886 401.919 32.7011 402.572 33.3421L403.772 33.4766C404.084 34.3242 403.982 38.3817 403.927 39.5155C403.713 44.0382 403.883 49.7349 403.891 54.3254L403.913 80.3957L403.927 108.283C403.911 113.826 403.752 120.222 403.933 125.707C403.723 131.268 403.903 137.906 403.905 143.536L403.917 178.396L403.905 203.106C403.905 206.431 403.713 212.438 403.957 215.533C403.887 225.824 403.663 237.717 403.937 247.942C403.927 250.281 403.879 252.739 403.925 255.067L403.937 256.003C403.627 256.785 403.887 256.543 403.231 256.856L402.798 256.767L402.598 256.412C402.239 257.408 402.154 261.336 402.296 262.435C402.322 263.56 402.542 266.611 401.989 267.383C401.543 267.581 401.574 267.561 401.084 267.5C400.842 268.059 400.896 268.256 400.92 268.855C400.005 268.811 399.975 268.648 399.396 269.059C398.833 270.45 399.17 271.966 399.311 273.519C399.315 274.614 399.503 277.056 398.857 277.749C398.101 277.651 398.113 277.582 397.94 276.771C397.867 278.066 397.833 279.998 397.5 281.195L396.671 281.272C396.252 281.808 396.383 281.661 396.29 282.443C395.885 282.462 395.31 282.395 395.082 282.619C394.27 283.417 394.53 285.996 394.661 287.133C394.647 288.486 394.885 288.388 393.578 288.89C393.344 289.357 393.348 289.632 393.29 290.144C392.287 290.152 392.4 289.982 391.815 290.483C391.573 291.239 391.696 292.128 391.739 292.944C391.733 293.682 391.825 295.001 391.319 295.483C390.557 296.211 390.805 295.503 390.236 296.062C388.444 296.334 388.427 296.687 388.563 298.701C388.583 298.782 388.605 298.862 388.625 298.941C388.611 299.524 388.613 300.189 388.575 300.764C388.361 299.74 388.546 299.824 387.927 299.221L387.546 299.129C387 299.643 387.157 300 387.256 300.718C387.226 301.451 387.224 303.123 386.871 303.692C385.346 304.25 385.526 305 385.544 306.587C384.862 306.89 384.35 306.486 384.148 306.722C382.027 307.019 382.499 308.087 382.604 309.958C382.481 310.829 382.642 310.815 382.142 311.205L381.347 311.251C381.027 311.696 381.053 312.19 380.996 312.755L380.843 312.965L379.915 312.81C379.381 313.594 379.817 314.917 379.254 315.721L378.242 315.755C377.877 316.425 377.903 316.399 377.834 317.171C377.27 317.445 377.199 317.425 376.594 317.516C375.957 317.413 375.614 317.278 375.047 317.566C374.479 318.423 374.942 319.234 374.505 319.931L373.767 319.996L373.521 320.415C373.484 321.508 373.65 321.542 373.113 322.405L372.952 322.083L372.573 322.169L372.601 322.911L372.323 322.996C372.254 322.708 372.194 322.464 372.139 322.169C372.059 323.053 371.984 323.795 371.841 324.676C370.691 325.377 370.562 323.857 370.149 326.158L369.135 326.259C368.754 326.819 368.808 327.065 368.784 327.741C367.396 328.083 367.417 327.186 367.102 329.287C364.676 329.567 365.491 331.241 363.071 331.14C362.185 331.096 362.068 330.934 361.451 331.303C361.316 331.939 361.359 332.12 361.409 332.749C361.437 333.324 361.508 333.548 361.197 334.03C360.836 334.015 360.554 333.993 360.197 333.957L359.81 334.231C359.81 334.721 359.806 335.038 359.764 335.534C359.185 335.641 359.072 335.635 358.501 335.637C358.005 336.147 358.037 336.145 357.765 336.82C357.172 337.159 356.101 337.159 355.404 337.167C354.555 337.137 354.381 336.975 353.821 337.35C353.78 337.861 353.77 338.125 353.782 338.653C353.637 339.665 353.827 339.496 353.232 340.024C352.54 340.193 352.248 340.081 351.524 339.958C350.872 340.206 351.058 339.992 350.765 340.464L350.733 341.486C349.812 341.986 348.799 341.557 347.938 342.085L348.152 342.155C348.664 342.331 348.965 342.359 349.263 342.791L349.116 343.117C348.376 343.162 346.494 343.095 345.994 343.357C346.016 343.799 346.034 344.085 346.01 344.531C344.97 344.779 343.55 344.547 343.042 344.898C343.016 345.319 343.004 345.656 343.002 346.079C341.917 346.497 340.783 345.946 339.87 346.426C339.688 346.87 339.698 346.918 339.632 347.398C339.011 347.829 337.833 347.69 337.01 347.682C336.792 347.727 335.964 347.876 335.81 347.944C334.955 350.973 332.963 348.053 331.156 349.717L331.196 350.1C331.692 350.372 331.707 350.404 332.249 350.529C331.21 350.638 330.616 350.695 329.547 350.67C327.863 350.489 325.433 350.749 323.66 350.741C323.489 350.588 323.319 350.436 323.148 350.285C322.948 350.297 322.021 351.039 321.968 350.537C321.94 350.497 321.914 350.455 321.888 350.412C321.74 351.35 321.861 351.626 321.295 352.231L320.539 352.467C320.476 353.138 320.529 353.267 320.66 353.907C318.748 353.717 315.489 353.941 313.317 353.88C312.303 353.765 307.324 353.798 306.632 354.195C307.429 354.776 307.57 353.868 307.844 354.681C307.507 355.024 307.717 354.887 307.072 354.913L307.148 355.247L300.592 355.31L296.235 355.296C293.528 355.276 290.824 355.28 288.118 355.308C286.107 355.183 282.965 355.28 280.868 355.276C281.08 354.84 281.247 354.53 281.544 354.141C280.443 353.79 275.32 353.786 274.022 353.872C273.245 353.927 272.164 353.866 271.364 353.846C270.956 353.792 270.632 353.735 270.228 353.655C270.089 353.177 270.23 353.175 270.517 352.576C269 352.068 265.592 352.13 263.969 352.275L262.676 352.29C262.739 351.876 262.868 351.376 262.961 350.961C262.251 350.648 258.851 350.568 257.863 350.515L257.84 349.832L258.032 349.541C256.352 349.108 255.12 349.104 253.396 349.253C252.511 349.255 249.601 349.332 249.064 349.001C249.26 348.541 249.718 348.271 250.129 347.948L249.272 347.767C248.955 344.291 246.42 347.067 244.539 345.813L244.454 345.373C244.916 345.025 245.283 345.004 245.878 344.845L244.412 344.771C242.944 344.635 241.331 344.414 239.887 344.597L239.768 343.656C239.326 343.182 239.209 343.337 238.338 343.256C237.59 343.278 237.527 343.301 236.834 343.065C236.811 342.68 236.807 342.825 236.829 342.456L236.846 342.206C236.087 341.25 234.692 342.073 233.899 341.468L233.859 340.325C233.218 339.833 231.582 340.294 230.925 339.829L230.772 338.709C230.808 338.129 230.806 337.923 230.766 337.34C230.237 336.957 230.052 337.141 229.185 337.209C228.208 337.137 227.319 337.028 226.351 336.903L226.275 335.804L226.006 335.59C225.478 335.637 225.139 335.733 224.686 335.481L224.536 334.213C223.026 333.987 223.195 334.08 222.834 332.713C222.274 332.785 221.427 332.606 220.844 332.507C219.622 331.511 220.981 331.174 219.011 330.767C218.87 330.888 218.968 330.821 218.674 330.896C218.66 330.376 218.686 330.154 218.505 329.658C217.742 329.305 218.109 329.321 217.377 329.495C217.053 328.962 217.113 328.672 217.041 328.005C217.002 327.47 216.986 327.128 216.992 326.595C216.448 326.317 216.446 326.46 215.671 326.615C215.141 326.446 214.711 326.448 214.161 326.41C214.161 326.061 214.135 325.664 214.121 325.311C213.594 324.809 213.526 324.988 212.542 324.958C212.568 324.438 212.667 324.026 212.386 323.615C210.948 323.192 211.162 323.339 211.084 321.931L210.92 320.685C210.388 320.296 210.489 320.439 209.603 320.542C207.204 320.103 208.783 319.78 207.782 318.744L206.818 318.784C206.24 318.187 206.861 316.856 206.219 315.995L205.286 315.977C204.513 315.487 205.288 315.421 204.792 314.308C204.286 314.322 204.078 314.33 203.564 314.279C203.457 313.289 203.654 312.88 203.152 312.245C202.539 312.203 202.856 312.172 202.19 312.618C202.091 312.513 201.829 310.39 201.777 309.999C201.22 309.454 201.543 309.63 200.762 309.476C200.31 308.948 200.384 308.152 200.296 307.325C199.525 306.577 199.66 307.337 198.968 306.609C198.891 306.014 198.901 305.575 198.559 305.093C198.304 305.039 198.116 304.998 197.855 304.962L197.656 304.936C197.29 304.294 197.403 303.024 197.405 302.222C196.837 302.226 196.515 302.298 196.064 301.966C195.626 301.191 195.779 300.189 195.802 299.246L195.839 297.6H194.391L194.308 296.155L193.296 296.034L193.104 296.072C192.814 295.665 192.79 293.791 192.714 293.094C192.332 292.985 191.924 293.009 191.514 292.997C191.19 292.42 191.299 290.674 191.157 289.706C190.881 289.551 190.483 289.757 190.066 289.866C189.815 289.043 189.755 286.47 189.705 285.484C189.307 285.516 188.9 285.476 188.498 285.456C188.198 284.754 188.2 282.125 188.078 281.028C187.288 281.167 187.607 281.258 187.033 280.969C186.746 279.931 186.699 277.523 186.755 276.408C186.81 275.475 186.982 274.493 186.613 273.68C186.07 273.301 186.143 273.45 185.25 273.571C185.2 272.63 185.257 271.386 184.838 270.615L184.242 270.495C183.551 269.738 183.692 265.546 183.718 264.355C183.801 263.107 183.854 261.012 183.488 259.848L183.196 259.757C182.497 260.308 182.529 260.479 182.299 261.401C182.23 260.342 182.215 259.818 182.267 258.751C182.122 257.253 182.117 255.876 182.098 254.378C182.317 253.251 182.18 245.605 182.165 243.909C182.067 241.703 182.004 239.497 181.974 237.289C181.777 238.348 181.899 242.034 181.515 242.689L181.192 242.611C180.829 241.76 180.923 239.747 180.991 238.769L181.004 238.6L180.699 238.773C180.583 231.585 180.74 224.32 180.674 217.092C180.823 215.497 180.711 211.47 180.711 209.704L180.681 203.705L180.677 200.618C180.718 199.627 180.683 198.447 180.675 197.437C180.722 196.403 180.685 195.283 180.674 194.242C180.803 189.434 180.632 184.312 180.495 179.499C180.442 177.637 180.521 175.145 180.322 173.361C179.858 176.227 180.432 180.751 180.154 183.752C180.076 184.594 180.59 185.554 180.258 186.783C179.8 186.055 179.959 184.433 179.973 183.485L179.789 183.31C179.61 183.82 179.637 185.538 179.625 186.185C179.485 185.209 179.325 182.244 179.528 181.302C179.794 181.517 179.757 181.746 179.856 182.173C179.729 180.489 179.605 173.49 179.254 172.755C178.838 162.371 179.343 150.687 179.101 140.081C179.344 137.513 179.103 133.351 178.962 130.726C178.963 130.707 178.964 130.688 178.965 130.669L178.403 130.654C178.216 130.817 177.965 130.792 177.633 130.845L177.675 128.89C177.766 128.032 177.597 126.976 177.501 126.099C177.065 126.011 176.569 126.015 176.117 125.995L176.069 124.894C175.6 124.422 175.531 124.593 174.609 124.568L174.461 124.512L174.284 124.627C173.076 124.571 171.371 124.282 170.493 124.99C170.007 126.19 169.598 125.931 168.374 125.986C167.458 126.032 167.501 125.868 167.017 126.349C167.04 126.871 167 126.861 167.309 127.27C167.193 127.473 167.273 127.416 167.101 127.482L166.997 127.819C166.863 128.266 166.823 128.507 166.748 128.965C166.319 128.997 166.017 129.02 165.589 129.088C165.311 129.6 165.333 129.771 165.284 130.341C164.754 130.449 164.575 130.456 164.049 130.487C163.786 131.013 163.856 131.307 163.88 131.895C163.348 132.184 163.295 132.096 162.633 132.091C161.734 133.096 163.378 133.63 161.097 133.507C160.416 134.252 161.274 134.609 160.53 135.086L159.614 135.103C159.262 135.539 159.309 135.866 159.274 136.433C157.956 136.674 157.784 136.317 157.692 137.754C157.162 138.241 157.232 138.089 156.368 138.218L155.161 138.365C154.766 138.872 154.896 138.979 154.838 139.766L154.672 141.018C154.113 141.12 153.87 141.14 153.317 141.177C153.1 141.683 153.15 142.006 153.155 142.554C152.163 143.41 151.927 141.967 151.666 144.049C150.579 144.395 150.611 143.842 150.203 144.454L150.195 145.612C149.477 146.075 149.353 145.387 148.78 145.973L148.644 147.081C148.168 147.217 147.99 147.171 147.495 147.144L147.194 147.373C147.024 148.644 147.291 148.703 145.989 148.727C144.754 150.178 146.98 149.941 144.23 150.256C143.328 150.407 143.215 150.25 142.815 150.778L142.739 151.864C142.633 152.641 142.761 152.723 142.332 153.184C141.453 153.226 141.798 153.062 141.209 153.573C141.184 154.022 141.192 154.338 141.054 154.771C140.495 154.841 140.28 154.84 139.731 154.839C139.146 155.757 140.004 156.033 139.264 156.454L138.317 156.424C137.734 157.066 138.527 157.409 137.863 157.877L136.719 157.898C136.137 158.709 137.011 159.05 136.232 159.481L135.294 159.435C134.763 160.099 135.439 160.446 134.924 160.873L133.835 160.913C133.405 161.333 133.444 161.739 133.378 162.313C132.896 162.571 132.633 162.512 132.088 162.5C132.096 163.055 132.181 163.425 131.848 163.846C130.936 163.753 131.204 163.643 130.578 164.065L130.413 165.334C129.813 165.477 129.731 165.459 129.132 165.463C128.869 166.024 128.879 166.237 128.812 166.841C127.714 167.208 128.111 166.605 127.475 167.249L127.418 168.377C126.663 168.82 126.519 168.159 125.86 168.749L125.836 169.871C124.992 170.339 125.156 169.673 124.473 170.28L124.398 171.41C123.977 171.629 123.597 171.549 123.11 171.525C122.293 172.779 123.669 173.069 121.628 173.067C120.991 174.014 121.799 174.227 121.118 174.569L120.08 174.504C119.812 175.082 119.871 175.417 119.877 176.051C118.489 177.111 118.625 174.719 118.382 179.348C118.1 178.335 118.29 178.456 117.641 177.806L117.26 177.867C116.798 178.755 116.874 179.775 116.928 180.783C116.918 181.518 116.782 182.9 117.139 183.445C118.173 183.544 118.58 183.962 118.689 185.037C119.311 185.225 119.46 185.206 120.09 185.219C120.761 185.265 121.775 185.255 122.328 185.558C122.615 186.212 122.376 186.216 122.639 186.638C123.417 186.756 123.916 186.755 124.708 186.77C125.448 186.937 125.734 186.865 126.191 187.305C126.06 187.724 126.086 187.708 125.778 188.016C128.206 188.299 139.618 188.648 142.037 188.292C143.867 188.2 145.72 188.269 147.554 188.308L146.74 188.577C146.758 188.876 146.775 189.031 146.812 189.321C146.075 189.514 145.598 189.56 144.837 189.651C146.631 189.724 148.427 189.77 150.222 189.789C150.976 189.793 152.857 189.843 153.506 189.756C153.915 189.754 154.507 189.73 154.899 189.757C154.9 190.624 154.736 190.79 155.155 191.298C155.583 191.319 155.991 191.347 156.419 191.331L156.456 192.874C156.231 199.522 156.512 207.587 156.586 214.355C156.842 210.914 156.791 201.894 156.805 197.958C156.806 197.767 157.244 197.437 157.433 197.324C157.791 198.746 157.492 208.688 157.496 210.71C157.491 216.114 157.448 221.673 157.51 227.06C157.539 229.662 158.11 239.808 157.615 241.53L157.373 241.675L156.614 241.298C156.345 241.824 156.466 242.524 156.565 243.119C156.512 243.786 156.629 244.04 156.265 244.371C153.003 244.609 147.986 244.459 144.56 244.453L124.382 244.379L124.601 244.099C123.044 244.129 118.6 244.389 117.359 243.99L117.275 243.691C118.187 243.1 126.058 243.83 127.738 243.27C119.922 243.296 112.135 242.828 104.149 243.01C99.6336 242.826 92.1742 242.852 87.6683 243.004C84.2843 242.975 80.9 242.982 77.5161 243.022C73.174 242.909 68.4955 242.969 64.1325 242.951C61.218 242.665 59.5541 242.445 56.4977 242.514C55.5977 242.534 50.999 242.463 50.3019 242.296C51.7248 241.487 63.938 241.764 66.5486 241.729C66.2552 241.57 39.4397 241.411 36.9986 241.419C35.11 241.379 32.5489 241.251 30.713 241.374C30.0905 241.387 29.6606 241.461 29.1143 241.179L29.1713 240.614C28.4845 239.269 26.9343 240.467 25.8948 239.747L25.8296 238.632C25.0817 238.08 23.4073 238.624 22.813 238.142L22.8789 237.096C22.4389 236.682 22.4042 236.84 21.5609 236.858C20.9712 236.251 21.6524 236.384 21.0747 235.505L19.9522 235.436C19.3329 234.835 20.0758 234.706 19.463 233.922C17.5729 233.93 18.7489 233.634 18.0348 232.374L16.9119 232.428C16.3492 231.763 17.1215 231.379 16.435 230.706L15.4864 230.766C15.1974 230.367 15.1299 228.577 14.9574 227.788C14.4045 227.786 14.4193 227.825 13.9516 227.548C13.5352 226.812 13.6795 225.841 13.7008 224.945C13.7516 224.391 13.7204 223.675 13.7151 223.104C13.7344 222.302 13.8453 221.088 13.3631 220.487C11.971 219.737 12.2548 219.836 12.1236 218.366C12.0229 217.164 11.913 210.335 12.4247 209.649L13.4279 209.542C13.9016 208.161 13.4611 207.03 13.8213 205.443C14.2608 205.292 14.3231 205.324 14.7937 205.32C15.0762 204.977 16.7452 200.656 17.1607 199.767C18.1039 199.353 18.1483 199.403 18.2109 198.38C18.7108 197.422 18.5528 197.662 19.7618 197.156C19.6927 196.239 19.7175 195.838 20.0538 195.009C20.4846 195.698 20.1967 195.474 20.9067 195.754L21.1239 195.617C21.1285 195.489 21.1549 194.661 21.2273 194.56C24.1766 190.483 27.9743 186.711 31.7671 183.451C34.1288 181.421 35.9939 180.211 38.1466 178.119C38.7151 177.566 38.576 177.761 39.3632 177.525C39.5895 177.281 39.6145 176.74 39.6915 176.34C39.9608 176.305 40.5301 176.223 40.7099 176.071C46.2423 171.381 52.4153 164.109 57.6435 159.386C57.6923 158.813 57.6802 158.648 57.9017 158.099C58.0461 158.084 58.789 158.021 58.9711 157.873C61.2272 156.041 63.1325 153.7 65.2104 151.664C65.2487 151.626 65.3808 150.367 65.3508 150.399C65.3502 150.399 66.7902 150.093 66.7924 150.091C67.3894 149.638 67.9919 148.989 68.4832 148.475C71.423 145.399 74.322 142.292 77.4226 139.377C77.8573 138.968 78.4984 138.402 78.9588 138.005L79.1653 137.154C81.0012 135.746 83.4151 133.582 84.9025 131.891C84.9348 131.42 84.908 131.055 85.1455 130.655L86.2875 130.582C87.1543 129.986 87.5826 128.64 88.2785 127.97C89.5379 126.757 91.4478 125.608 92.5874 124.187C92.6765 124.076 92.4485 123.562 92.7568 123.039L94.1495 122.998C94.1567 122.539 94.185 122.235 94.2293 121.783C94.7381 121.384 94.8589 121.52 95.6615 121.473C95.9523 119.066 95.9249 120.562 97.1451 119.762C97.2687 117.71 97.5329 119.08 98.608 118.259C98.6394 117.647 98.6152 117.6 98.8288 117.004C100.983 116.766 100.543 115.656 101.99 114.033C102.06 113.955 103.096 114.066 103.152 113.683C103.212 113.265 103.306 112.739 103.483 112.362L104.409 112.212C104.918 111.742 105.676 111.007 106.158 110.54C106.178 110.055 106.12 109.663 106.419 109.311L107.553 109.22C108.278 108.571 108.977 107.11 109.525 106.526C109.831 106.2 111.868 105.202 112.198 104.541C112.257 104.422 112.108 103.771 112.416 103.261L113.549 103.227C113.987 102.849 113.846 102.733 113.925 101.949C114.52 101.875 114.601 101.9 115.15 101.629L115.339 101.029C115.361 100.603 115.344 100.628 115.564 100.266C116.019 100.231 116.176 100.216 116.62 100.116C116.793 99.7264 116.959 99.3338 117.12 98.9388C117.284 98.5305 119.092 97.6247 119.532 97.2307C120.22 96.6129 119.528 96.2994 120.138 95.5604C120.642 95.5965 120.94 95.6664 121.406 95.4719C121.447 94.9561 121.414 94.5954 121.712 94.1824L122.547 94.1858C123.225 93.8183 122.91 92.8147 123.117 92.6901C123.866 92.2393 125.021 91.4317 125.753 90.8956C125.691 90.9411 125.978 89.8277 126.119 89.539C126.647 89.5472 126.879 89.5837 127.39 89.4176C127.468 88.8171 127.465 88.4875 127.756 87.9497C128.274 87.9477 128.394 87.9866 128.878 87.7918C128.912 87.6333 128.948 87.4753 128.986 87.3174C129.342 85.8301 129.511 86.9373 130.495 86.3296C130.517 85.7585 130.483 85.4694 130.725 84.9455C131.164 84.9165 131.53 84.877 131.964 84.826C132.063 84.3128 132.084 83.9263 132.387 83.5053C134.35 83.4595 132.928 82.9564 133.795 81.893C133.905 81.7585 134.529 82.1156 135.055 81.6662C135.058 81.1677 135 80.8385 135.265 80.4259C136.711 80.393 136.559 79.747 137.471 78.612C138.5 77.333 137.994 77.6472 139.507 77.3901C139.574 76.8007 139.571 76.3448 139.855 75.828L140.754 75.7748C141.404 75.1574 140.746 75.0909 141.341 74.2672L142.355 74.1841C142.867 73.7825 143.876 71.9738 144.446 71.2306C144.934 71.2128 144.985 71.2239 145.45 71.0945C145.685 70.5958 145.75 70.3769 145.915 69.8615C146.381 69.751 146.613 69.7254 147.082 69.6701C147.242 67.1422 147.756 68.4785 148.258 68.0071C150.031 66.345 151.866 63.752 153.631 62.1591C154.136 62.1786 154.177 62.2074 154.657 62.0768C155.093 59.8134 155.833 60.2945 157.565 58.9301C157.451 59.0198 157.931 57.5777 157.97 57.492C158.3 57.4444 158.63 57.3987 158.961 57.3551C159.7 56.3641 160.269 55.3105 161.219 54.5058C162.843 53.1301 166.579 49.8985 167.176 47.9831C167.655 48.0743 167.614 48.0914 168.016 48.3673C168.682 48.1664 167.913 47.8126 168.562 46.9925C169.082 46.9838 169.267 47.0496 169.664 46.736C170.31 44.3945 171.326 45.1107 172.746 43.2964C175.83 39.3576 180.057 35.869 183.541 32.2345C183.738 32.0292 185.342 30.273 185.263 30.3002C186.415 29.9048 186.014 30.122 186.963 28.9521C188.757 26.7422 190.937 24.5934 193.013 22.6321C193.001 22.6427 193.982 22.5417 194.075 22.5319C194.82 21.3932 194.773 21.2154 196.129 21.0601L196.318 21.0404L196.056 20.7605L196.124 20.2879C196.923 19.5124 198.907 19.7346 200.169 19.7342Z" fill="#F3F3F3"/>
<path d="M235.327 337.185C236.203 337.111 236.16 336.969 236.796 337.314C236.923 337.818 236.929 337.871 236.951 338.389L236.884 338.615C236.943 339.419 236.802 339.393 237.223 339.873C238.996 340.421 238.498 341.605 238.338 343.256C237.59 343.279 237.528 343.301 236.834 343.065C236.812 342.68 236.808 342.825 236.83 342.456L236.846 342.206C236.088 341.25 234.692 342.073 233.9 341.468L233.859 340.325C233.218 339.833 231.583 340.294 230.925 339.829L230.772 338.709C232.284 338.395 232.787 338.962 233.619 338.26C233.714 337.774 233.704 337.782 233.932 337.346L234.702 337.145C234.839 337.133 234.971 337.086 235.083 337.012L235.327 337.185Z" fill="#FCFCFC"/>
<path d="M235.327 337.185C236.202 337.11 236.16 336.969 236.795 337.314C236.922 337.818 236.928 337.871 236.951 338.389L236.884 338.615C236.432 338.651 236.166 338.635 235.716 338.621C235.249 338.072 235.402 338.08 235.327 337.185Z" fill="#F8FDFB"/>
<path d="M182.31 243.978C182.382 241.899 182.076 237.221 182.368 235.65C182.807 235.328 182.705 235.438 183.406 235.497C184.063 236.445 183.739 237.677 183.856 237.81C185.042 239.155 187.008 237.729 186.699 240.965L186.488 241.254C185.468 241.389 184.696 241.342 183.988 241.977C183.914 242.752 183.938 243.661 183.475 244.238C182.999 244.367 182.875 244.391 182.385 244.443L182.31 243.978Z" fill="#FCFCFC"/>
<path d="M193.296 296.034C194.366 295.898 196.105 295.915 197.092 296.306C197.52 296.874 197.377 296.866 197.431 297.729L198.905 297.667L198.852 299.07L198.834 300.512C199.589 300.651 199.747 300.679 200.506 300.665L200.367 302.062L200.405 302.218C199.191 302.26 198.056 301.794 197.405 302.222C196.837 302.226 196.515 302.298 196.064 301.966C195.627 301.191 195.779 300.189 195.803 299.246L195.839 297.6H194.391L194.308 296.155L193.296 296.034Z" fill="#E9FCFB"/>
<path d="M198.852 299.07L198.834 300.512C199.589 300.651 199.747 300.679 200.506 300.665L200.367 302.062C199.763 302.05 199.684 302.083 199.102 301.877C198.876 301.33 198.861 301.195 198.741 300.631C197.877 300.681 197.804 300.734 197.367 300.062C197.403 299.379 197.271 299.651 197.729 299.197L198.305 299.24L198.852 299.07Z" fill="#DDFAEC"/>
<path d="M197.431 297.729L198.905 297.667L198.852 299.07L198.305 299.24L197.715 299.074C197.321 298.546 197.458 298.544 197.431 297.729Z" fill="#FAF1F4"/>
<path d="M194.309 296.155C195.117 296.211 195.258 296.072 195.732 296.489C195.768 296.854 195.813 297.237 195.839 297.6H194.391L194.309 296.155Z" fill="#DDFAEC"/>
<path d="M239.856 265.593C240.094 265.79 240.201 265.734 240.605 265.8C241.282 265.514 241.028 265.746 241.361 265.048L241.494 265.512L241.694 265.603C243.373 266.075 242.706 266.26 242.901 267.912L242.918 268.633C242.912 269.178 242.897 269.751 242.912 270.293L241.607 270.402C241.51 270.158 241.421 269.134 241.385 268.807C240.812 268.795 240.526 268.775 239.957 268.704C239.124 267.835 239.943 267.377 239.516 265.742L239.02 265.603L239.856 265.593Z" fill="#FAF1F4"/>
<path d="M241.694 265.603C243.374 266.075 242.706 266.26 242.902 267.912L242.918 268.633C242.912 269.178 242.898 269.751 242.912 270.293L241.607 270.402C241.51 270.158 241.422 269.134 241.385 268.807L241.67 268.843C241.315 267.464 242.236 267.222 241.694 265.603Z" fill="#FCFCFC"/>
<path d="M242.902 267.912L242.918 268.633C242.912 269.178 242.898 269.751 242.912 270.293L241.607 270.402C241.51 270.158 241.422 269.134 241.385 268.807L241.67 268.843C242.01 268.787 242.305 268.728 242.642 268.658L242.902 267.912Z" fill="#F8FDFB"/>
<path d="M197.405 302.222C198.056 301.794 199.191 302.26 200.405 302.218C200.824 306.186 199.438 304.984 199.353 306.367L200.139 306.635C200.256 306.998 200.265 306.95 200.296 307.325C199.525 306.577 199.661 307.337 198.968 306.609C198.891 306.014 198.901 305.575 198.56 305.093C198.304 305.039 198.116 304.998 197.855 304.962L197.656 304.936C197.29 304.294 197.403 303.024 197.405 302.222Z" fill="#F8FDFB"/>
<path d="M174.461 124.512C175.87 124.327 175.814 124.516 176.207 123.047C178.921 121.967 180.52 124.706 178.769 126.066C178.183 126.134 178.088 126.138 177.501 126.099C177.066 126.011 176.569 126.015 176.117 125.995L176.069 124.894C175.601 124.422 175.531 124.593 174.609 124.568L174.461 124.512Z" fill="#E9FCFB"/>
<path d="M258.163 286.926C258.808 286.918 259.161 286.799 259.629 287.075C259.593 287.682 259.571 287.777 259.897 288.331L260.212 288.4L260.748 287.853L260.94 287.912C261.172 288.371 260.994 288.232 261.39 288.438C261.396 288.944 261.422 289.224 261.307 289.728C260.5 290.204 259.111 290.041 258.093 290.093C258.076 289.031 258.125 287.988 258.163 286.926Z" fill="#E9FCFB"/>
<path d="M219.011 330.767C219.096 328.087 221.836 330.721 221.48 327.581L221.621 327.593C221.599 329.868 221.637 329.936 222.266 332.168C222.633 332.378 222.609 332.334 222.835 332.713C222.274 332.785 221.427 332.606 220.844 332.507C219.622 331.511 220.981 331.174 219.011 330.767Z" fill="#FCFCFC"/>
<path d="M248.959 276.562L250.27 276.513C250.764 277.403 250.329 278.431 250.899 279.282C251.797 279.352 251.648 279.193 252.077 279.693L252.14 280.917L250.934 280.844C250.208 280.227 250.242 279.383 250.038 278.316L249.329 278.058C248.836 277.491 249.004 277.524 248.959 276.562Z" fill="#E9FCFB"/>
<path d="M244.297 268.756C244.39 269.587 244.259 269.755 244.698 270.265L245.852 270.589C246.094 271.031 246.047 271.103 246.078 271.622C245.557 271.829 244.761 271.936 244.212 271.892C243.607 271.839 243.051 271.533 242.684 271.049C242.345 270.601 242.133 270.581 241.607 270.402L242.912 270.293C243.688 270.319 243.672 270.452 244.168 270.099L244.297 268.756Z" fill="#E9FCFB"/>
<path d="M290.07 94.4203C290.988 96.6147 291.619 94.3671 291.641 96.9482C292.314 97.5374 293.19 96.8553 294.117 97.2918C293.202 97.2967 292.577 97.1477 291.865 97.5406L291.794 98.1951C292.538 98.9114 292.03 97.9332 292.811 98.668C292.651 98.7133 292.002 98.7029 291.794 98.7053L291.423 98.4881C291.427 98.0012 291.441 97.6981 291.363 97.2092L291.068 97.1731C290.75 97.1325 290.524 97.0948 290.213 97.0351C289.927 96.6266 289.923 96.4635 289.796 95.9818C289.396 95.6913 289.031 95.7138 288.529 95.6626C288.745 95.5896 289.481 95.5047 289.749 95.4668C289.991 95.0589 289.985 94.8881 290.07 94.4203Z" fill="#FAF1F4"/>
<path d="M182.165 243.909L182.31 243.978L182.385 244.443C183.084 244.552 183.448 244.464 183.798 244.871C183.816 245.679 183.955 245.371 183.55 245.897C182.741 246.036 182.777 245.887 182.379 246.365C181.999 249.771 182.704 255.346 182.268 258.751C182.123 257.253 182.118 255.876 182.098 254.378C182.317 253.251 182.18 245.605 182.165 243.909Z" fill="#FCFCFC"/>
<path d="M264.252 291.557C265.177 291.575 265.203 291.416 265.798 291.858L265.942 292.884C264.897 292.902 264.078 293.187 263.116 292.858C262.638 292.315 262.794 292.434 262.727 291.531L264.252 291.557Z" fill="#FCFCFC"/>
<path d="M335.81 347.944C334.572 348.083 333.076 348.255 332.372 347.091L332.519 346.62C333.015 346.218 333.397 346.021 333.911 346.464C333.917 346.906 333.876 347.166 334.052 347.567C335.038 347.616 336.024 347.654 337.01 347.682C336.792 347.727 335.964 347.876 335.81 347.944Z" fill="#FCFCFC"/>
<path d="M347.559 122.925C348.214 122.892 348.646 122.782 349.178 123.135C349.467 123.74 349.392 123.924 349.324 124.586L347.599 124.603C347.62 124.114 347.575 123.431 347.559 122.925Z" fill="#E9FCFB"/>
<path d="M235.41 336.143L235.579 335.812L236.311 335.764C236.565 335.348 236.481 335.056 236.44 334.562L236.648 334.548L236.694 336.923C237.213 337.326 237.261 337.191 238.068 337.246L237.219 337.411L236.95 338.389C236.928 337.871 236.922 337.818 236.795 337.314C236.16 336.969 236.202 337.111 235.327 337.185L235.083 337.012C235.365 336.82 235.496 336.471 235.41 336.143Z" fill="#FCFCFC"/>
<path d="M198.852 299.07L200.529 299.092L200.507 300.665C199.747 300.679 199.589 300.651 198.834 300.512L198.852 299.07Z" fill="#E9FCFB"/>
<path d="M198.905 297.667L200.497 297.645L200.529 299.092L198.852 299.07L198.905 297.667Z" fill="#FCFCFC"/>
<path d="M198.905 297.667C198.94 296.689 198.786 296.814 199.252 296.134L199.658 295.979C200.574 296.463 200.429 296.61 200.497 297.645L198.905 297.667Z" fill="#FAF1F4"/>
<path d="M234.702 337.145C234.281 337.181 233.904 336.881 233.843 336.461C233.783 336.042 234.061 335.647 234.476 335.564C234.892 335.479 235.301 335.733 235.41 336.143C235.497 336.471 235.366 336.82 235.083 337.012C234.97 337.086 234.839 337.133 234.702 337.145Z" fill="#F8FDFB"/>
<path d="M332.536 283.899C332.3 284.851 332.471 284.774 331.882 285.371C331.384 285.488 331.348 285.545 330.86 285.438L331.064 284.476C331.616 283.933 331.622 284.087 332.536 283.899Z" fill="#FAF1F4"/>
<path d="M185.673 230.98C187.029 230.896 188.489 230.906 189.857 230.892C189.881 231.97 190.065 231.924 190.947 232.287C191.795 233.351 192.013 235.787 191.176 236.793L190.364 236.84C189.672 236.852 188.188 236.916 187.558 236.676C187.228 236.549 187.225 236.199 187.078 235.751C186.047 234.829 186.5 235.684 185.366 235.148C185.41 233.904 185.088 233.366 185.188 232.265C185.918 232.128 185.748 232.45 186.602 231.992C186.781 231.426 186.796 231.702 186.514 231.144L185.673 230.98Z" fill="#F8FDFB"/>
<path d="M193.057 223.32C193.735 223.278 195.286 223.072 195.79 223.407L195.915 224.564C196.661 225.252 196.287 224.474 197.343 225.022L197.43 225.79C197.765 226.254 198.223 226.403 198.749 226.663C199.089 227.212 198.83 228.492 198.755 229.218C197.796 229.274 195.678 229.494 194.915 229.097C194.5 227.696 194.423 227.748 193.071 227.555C192.62 226.617 192.929 224.369 193.057 223.32Z" fill="#FCFCFC"/>
<path d="M200.494 215.757C201.215 215.755 202.326 215.71 203.019 215.767C203.806 215.831 203.124 216.261 203.721 217.09L204.606 217.17C205.373 217.727 204.459 217.678 205.177 218.648L206.282 218.733C206.768 219.388 206.663 221.03 206.194 221.659L205.542 221.737L203.743 221.723C203.136 221.203 203.729 221.124 203.322 220.364L203.243 221.475C202.648 221.59 202.636 221.703 202.199 221.493C202.189 220.878 202.217 220.862 201.991 220.261C201.404 219.844 201.731 219.959 200.955 219.973L200.627 219.646C200.34 218.584 200.465 216.912 200.494 215.757Z" fill="#FCFCFC"/>
<path d="M223.181 194.318C224.585 194.349 226.071 194.445 227.481 194.513C227.908 196.12 228.217 197.497 227.814 199.145C223.371 198.928 222.439 199.228 223.181 194.318Z" fill="#FCFCFC"/>
<path d="M217.274 197.202C217.666 197.24 217.849 197.279 218.234 197.365C218.795 198.253 218.529 202.136 218.561 203.453C217.375 203.401 216.064 203.669 215.532 202.481C215.262 201.878 214.723 201.989 214.11 201.921C214.126 201.48 214.092 201.163 214.294 200.772C217.059 199.312 216.593 200.755 217.533 201.876C218.218 201.939 217.962 202.05 218.398 201.723C218.521 201.04 218.698 200.001 218.196 199.503C217.034 198.354 217.147 198.989 217.274 197.202Z" fill="#FCFCFC"/>
<path d="M355.235 125.931L358.449 125.923V129.348L355.227 129.346L355.235 125.931Z" fill="#E9FCFB"/>
<path d="M261.059 171.501L264.274 171.492L264.266 174.706L261.051 174.714L261.059 171.501Z" fill="#E9FCFB"/>
<path d="M309.659 122.907L312.874 122.898L312.866 126.112L309.651 126.12L309.659 122.907Z" fill="#E9FCFB"/>
<path d="M321.777 130.595C321.878 129.57 321.922 129.042 321.88 127.987L322.039 128.06C322.16 128.823 321.981 128.545 322.447 129.001C323.249 129.088 324.143 128.885 324.788 129.242C325.135 129.676 325.09 129.693 325.189 130.254C325.518 130.545 325.578 130.647 325.953 130.841C325.59 130.917 325.643 130.916 325.266 130.927C324.983 132.372 325.219 132.18 323.521 132.209C322.791 132.191 322.785 132.205 322.098 131.993C321.638 131.377 321.787 131.539 321.777 130.595Z" fill="#E9FCFB"/>
<path d="M321.777 130.595C322.739 130.649 322.781 130.482 323.36 130.971C323.435 131.43 323.487 131.741 323.521 132.209C322.791 132.191 322.785 132.205 322.098 131.992C321.638 131.377 321.787 131.539 321.777 130.595Z" fill="#F8FDFB"/>
<path d="M139.419 122.957C140.378 122.879 141.873 122.908 142.874 122.898L142.866 126.112L139.652 126.12C139.683 124.95 139.612 124.114 139.419 122.957Z" fill="#E9FCFB"/>
<path d="M185.227 125.963L188.248 125.907C188.262 127.125 188.228 128.274 188.188 129.491C187.511 129.276 186.005 129.346 185.227 129.346V125.963Z" fill="#E9FCFB"/>
<path d="M115.263 147.1C116.286 147.067 117.426 147.175 118.457 147.243L118.651 150.308L115.251 150.316L115.263 147.1Z" fill="#E9FCFB"/>
<path d="M285.22 147.154C286.114 147.08 287.535 147.104 288.473 147.094C288.459 148.155 288.38 149.235 288.618 150.257C287.67 150.325 286.428 150.306 285.452 150.316C285.482 149.146 285.412 148.31 285.22 147.154Z" fill="#E9FCFB"/>
<path d="M384.104 296.025L384.993 295.886C386.314 296.384 385.971 297.55 385.75 298.699C385.366 299.177 385.606 299.048 385.02 299.123C384.052 299.159 382.511 299.252 382.416 297.612C382.343 296.334 383.08 296.155 384.104 296.025Z" fill="#E9FCFB"/>
<path d="M151.858 128.908C153.3 129.137 153.738 128.619 154.805 129.561C155.1 130.323 154.986 131.31 154.965 132.161L151.85 132.169L151.858 128.908Z" fill="#F8FDFB"/>
<path d="M297.65 153.444H300.732C300.77 154.545 300.867 155.414 300.615 156.487C299.957 156.58 298.346 156.56 297.604 156.567C297.654 155.598 297.64 154.43 297.65 153.444Z" fill="#F8FDFB"/>
<path d="M309.75 344.593C310.748 344.565 311.837 344.379 312.553 345.051C312.93 345.865 312.799 346.785 312.775 347.716H309.75V344.593Z" fill="#F8FDFB"/>
<path d="M273.59 177.577L276.373 177.541C276.389 178.729 276.399 179.576 276.292 180.763C275.952 180.778 275.611 180.789 275.27 180.798C274.244 180.82 274.159 180.829 273.457 180.162C273.143 179.392 273.336 178.35 273.59 177.577Z" fill="#F8FDFB"/>
<path d="M145.798 126.002L148.84 126.021L148.813 129.06C147.902 129.068 146.697 129.04 145.812 129.09C145.813 128.068 145.828 127.022 145.798 126.002Z" fill="#E9FCFB"/>
<path d="M145.812 129.09C145.753 129.978 145.8 131.184 145.809 132.099L142.817 132.183L142.792 129.13C143.831 129.151 144.776 129.123 145.812 129.09Z" fill="#E9FCFB"/>
<path d="M182.242 135.04C182.909 135.03 182.909 135.002 183.563 135.247C183.57 135.59 183.588 135.816 183.624 136.159C184.35 136.943 184.315 136.092 185.247 136.689C185.296 137.225 185.263 137.359 185.526 137.83C185.908 137.967 186.29 138.085 186.683 138.187C186.87 138.81 186.691 139.182 186.518 139.816L186.099 139.898C184.95 139.653 183.69 140.005 183.478 138.36C183.766 137.742 183.906 137.671 183.852 137.06C183.233 136.621 183.293 136.762 182.409 136.687L182.405 136.514C182.923 136.513 183.038 136.539 183.546 136.401C183.594 135.818 183.551 135.844 183.27 135.315L182.242 135.04Z" fill="#F8FDFB"/>
<path d="M286.918 165.298L287.005 165.428C287.511 165.42 287.702 165.38 288.184 165.532C288.549 165.979 288.475 166.281 288.481 166.879V167.116C289.015 167.13 289.239 167.116 289.769 167.252L288.846 167.432C288.644 168.062 288.622 168.086 288.303 168.625C288.346 168.627 287.696 168.599 287.725 168.594C287.587 168.62 287.214 168.471 287.118 168.398L286.845 167.627C286.361 167.297 285.752 167.021 285.375 166.565C285.135 166.274 285.22 166.377 285.254 165.917C285.99 165.289 285.811 165.483 286.918 165.298Z" fill="#F8FDFB"/>
<path d="M127.511 148.781C126.63 148.815 126.783 148.676 126.188 149.109C126.187 149.62 126.245 149.766 125.971 150.188C125.476 150.26 125.222 150.214 124.733 150.167C124.644 150.422 124.585 150.642 124.542 150.905C124.542 150.178 124.537 149.86 124.436 149.145C123.85 148.769 124.184 148.894 123.34 148.959L123.032 149.962L123.036 149.826L122.951 149.701C122.961 149.177 122.929 149.194 123.183 148.746L124.083 148.773C124.72 148.367 124.712 147.999 125.055 147.201C125.889 146.797 126.548 147.124 127.418 147.417L127.511 148.781Z" fill="#FCFCFC"/>
<path d="M209.487 311.295C210.6 311.305 211.511 311.281 212.623 311.217L212.55 314.382C211.921 314.354 211.594 314.469 211.233 314.146C211.237 313.473 211.215 313.41 210.864 312.834C210.457 312.6 210.257 312.66 209.779 312.668C209.384 312.088 209.517 312.134 209.487 311.295Z" fill="#FAF1F4"/>
<path d="M221.5 322.089C222.266 322.01 222.342 322.012 223.099 322.129C223.214 322.95 223.238 323.7 223.278 324.524C223.694 325.047 223.542 324.881 224.401 325.027C224.885 325.575 224.726 325.458 224.772 326.392C224.141 326.412 224.061 326.424 223.413 326.315C223.085 325.212 223.034 325.035 221.984 324.672C221.592 324.125 221.633 322.861 221.5 322.089Z" fill="#E9FCFB"/>
<path d="M328.059 59.2513C328.448 59.2725 328.698 59.3122 329.087 59.3648C330.464 61.1327 330.864 60.2951 331.029 62.2861L328.067 62.2619C328.081 61.2709 328.063 60.2453 328.059 59.2513Z" fill="#E9FCFB"/>
<path d="M353.915 288.396C354.343 288.359 354.498 288.367 354.926 288.375C355.662 289.364 355.44 291.807 355.424 293.122C353.946 292.993 351.695 293.307 350.767 292.64C350.572 292.017 350.715 291.757 350.89 291.126L350.963 291.134C351.419 291.694 350.812 291.995 351.294 292.763C352.119 292.682 352.732 292.872 353.395 292.658C353.514 292.041 353.502 291.844 353.901 291.348L354.924 291.259C355.194 290.944 355.099 289.839 355.198 289.111L355.226 288.928L355.006 288.738C354.47 288.744 354.361 288.767 353.829 288.644L353.915 288.396Z" fill="#F8FDFB"/>
<path d="M230.302 34.9582L230.661 35.1634C230.79 36.0881 230.621 35.9119 231.157 36.4543L231.484 36.4186C231.877 36.3779 231.962 36.3803 232.365 36.4323C232.722 37.1651 232.673 36.8009 232.603 37.5476C231.949 37.9914 232.139 37.853 231.25 37.927C230.79 36.8471 231.365 37.205 230.677 36.3236C230.266 36.2724 229.987 36.2317 229.572 36.2234C229.286 35.996 229.209 35.5931 229.392 35.2764C229.574 34.9596 229.961 34.8243 230.302 34.9582Z" fill="#F8FDFB"/>
<path d="M230.302 34.9582C230.572 35.0644 230.754 35.3187 230.77 35.6085C230.784 35.898 230.627 36.1694 230.368 36.3019C230.11 36.4345 229.8 36.4037 229.572 36.2234C229.286 35.996 229.209 35.5931 229.392 35.2764C229.574 34.9596 229.961 34.8243 230.302 34.9582Z" fill="#FCFCFC"/>
<path d="M355.184 141.153L355.309 141.191C355.47 141.531 355.474 142.235 355.458 142.625C355.378 144.49 353.756 144.213 352.552 144.169L352.393 144.098L353.163 143.976C354.135 142.356 355.136 143.322 355.184 141.153Z" fill="#F8FDFB"/>
<path d="M152.019 195.017C152.177 196.027 152.357 195.285 153.231 195.689C152.829 195.794 152.52 195.837 152.11 195.902C151.697 196.486 151.85 196.582 151.836 197.465C151.035 197.417 150.715 197.487 150.125 197.016L150.114 196.615C151.143 195.533 151.599 196.131 152.019 195.017Z" fill="#FAF1F4"/>
<path d="M331.07 343.319C331.293 343.065 331.638 342.956 331.969 343.035C332.298 343.115 332.554 343.371 332.637 343.7C332.717 344.029 332.61 344.375 332.356 344.599C331.995 344.918 331.451 344.902 331.112 344.563C330.771 344.224 330.753 343.68 331.07 343.319Z" fill="#F8FDFB"/>
<path d="M218.553 206.536C219.146 206.522 219.301 206.532 219.89 206.605C220.292 207.147 220.16 207.258 220.215 208.075C219.801 208.066 219.388 208.054 218.977 208.036C218.462 207.524 218.634 207.494 218.553 206.536Z" fill="#FCFCFC"/>
<path d="M63.946 154.981C64.306 154.689 64.8331 154.738 65.1328 155.092C65.4323 155.445 65.3943 155.973 65.0471 156.28C64.816 156.485 64.4921 156.548 64.2009 156.446C63.9095 156.344 63.6964 156.092 63.6435 155.788C63.5905 155.484 63.7063 155.175 63.946 154.981Z" fill="#FAF1F4"/>
<path d="M206.518 308.196C207.411 308.206 207.448 308.049 207.988 308.482C208.037 308.894 208.075 309.303 208.109 309.714C207.139 309.67 207.048 309.85 206.568 309.343L206.518 308.196Z" fill="#FAF1F4"/>
<path d="M139.82 133.581C140.637 133.584 140.627 133.439 141.092 133.841L141.146 135.076C140.531 135.081 140.395 135.099 139.777 134.94C139.524 134.309 139.644 134.392 139.82 133.581Z" fill="#F8FDFB"/>
<path d="M224.686 48.53C225.492 48.6022 225.742 48.4597 226.128 48.9049L225.99 50.0256L224.974 49.9717C224.504 49.4509 224.676 49.4866 224.686 48.53Z" fill="#FAF1F4"/>
<path d="M174.803 47.0461C175.175 47.056 175.453 47.0961 175.823 47.1431C176.165 47.7557 176.016 47.7539 175.928 48.6197C175.472 48.577 175.183 48.5275 174.738 48.4477C174.45 47.9226 174.627 47.8341 174.803 47.0461Z" fill="#F8FDFB"/>
<path d="M203.659 305.45C203.935 305.137 204.407 305.095 204.734 305.353C205.062 305.609 205.133 306.077 204.895 306.42C204.73 306.662 204.443 306.789 204.153 306.754C203.862 306.718 203.616 306.525 203.512 306.25C203.409 305.978 203.465 305.67 203.659 305.45Z" fill="#FAF1F4"/>
<path d="M197.586 220.354C197.902 220.064 198.392 220.082 198.687 220.392C198.981 220.705 198.97 221.195 198.663 221.493C198.46 221.691 198.167 221.764 197.895 221.685C197.624 221.604 197.416 221.384 197.352 221.11C197.288 220.834 197.377 220.546 197.586 220.354Z" fill="#FCFCFC"/>
<path d="M208.109 309.714C208.912 309.797 208.97 309.658 209.434 310.089C209.452 310.491 209.479 310.896 209.487 311.295L208.48 311.245C207.984 310.783 208.16 310.654 208.109 309.714Z" fill="#FAF1F4"/>
<path d="M127.448 153.444C127.671 153.853 127.625 153.866 127.602 154.344C127.071 154.9 127.263 154.725 126.378 154.912C126.031 154.566 126.01 154.282 126.053 153.848C126.642 153.377 126.545 153.528 127.448 153.444Z" fill="#F8FDFB"/>
<path d="M403.933 125.707C404.581 123.999 404.151 117.911 404.306 115.653C404.764 117.937 404.534 121.884 404.554 124.335C404.585 128.029 404.589 132.083 404.704 135.771C404.816 139.398 404.252 147.899 404.825 151.165C404.986 149.153 404.631 138.88 405.304 138.084L405.306 215.464C405.147 216.521 405.111 219.505 405.073 220.707C404.911 224.925 404.865 229.145 404.933 233.368C404.956 234.868 405.296 238.937 404.976 240.013L404.653 240.175L404.335 239.979C404.115 239.503 404.054 238.915 404.08 238.394C404.385 232.529 404.671 226.651 404.163 220.788C404.014 219.052 404.209 217.307 403.957 215.533C403.713 212.438 403.905 206.431 403.905 203.106L403.917 178.396L403.905 143.536C403.903 137.906 403.723 131.268 403.933 125.707Z" fill="#FEFEFE" fill-opacity="0.643137"/>
<path d="M403.927 39.5156C404.079 38.9399 404.099 38.5409 404.565 38.2025L404.903 38.311C405.724 40.5903 405.337 57.2164 405.339 60.6924L405.347 98.8916L405.335 124.932C405.333 128.791 405.519 134.364 405.305 138.084C404.631 138.88 404.986 149.153 404.825 151.165C404.252 147.899 404.817 139.398 404.704 135.771C404.589 132.083 404.585 128.029 404.555 124.335C404.534 121.884 404.764 117.937 404.307 115.653C404.151 117.911 404.581 123.999 403.933 125.707C403.752 120.222 403.911 113.826 403.927 108.283L403.913 80.3957L403.891 54.3254C403.883 49.735 403.714 44.0382 403.927 39.5156Z" fill="#FEFEFE" fill-opacity="0.760784"/>
<path d="M349.294 145.541C349.398 146.159 349.527 147.337 349.975 147.74C350.092 146.667 350.179 147.08 349.685 146.17L349.901 146.06L350.179 146.162C350.183 146.799 350.187 147.314 350.239 147.948L350.536 147.778C350.546 147.282 350.524 147.045 350.679 146.564L350.673 218.382C350.217 218.586 350.116 218.697 349.731 219.003C349.328 220.175 349.564 220.546 349.298 221.507C349.104 218.749 349.269 214.13 349.287 211.262L349.467 188.883L349.386 162.78C349.328 157.726 349.039 150.467 349.294 145.541Z" fill="#FEFEFE" fill-opacity="0.223529"/>
<path d="M235.414 191.451C235.555 190.874 235.553 189.499 235.571 188.845L235.797 188.975C235.838 189.286 235.882 189.388 235.971 189.69C236.025 189.132 236.072 188.5 236.453 188.141C236.505 188.746 236.558 189.133 236.729 189.715C236.979 192.027 236.802 196.852 236.792 199.429L236.751 218.402L236.717 241.608C236.721 244.347 236.937 250.597 236.755 253.037L236.489 253.13L236.029 252.807L235.672 253.408C235.16 252.392 235.38 201.076 235.38 195.546C235.352 194.153 235.378 192.845 235.414 191.451Z" fill="#FEFEFE" fill-opacity="0.529412"/>
<path d="M235.398 117.265C235.515 116.738 235.537 116.392 235.593 115.86L235.591 115.945L235.666 115.356C235.729 116.125 235.694 116.368 236.029 117.038L236.404 117.124L236.842 116.67C236.485 134.591 236.965 152.645 236.783 170.58C236.759 173.131 236.864 175.739 236.805 178.278C236.334 178.929 236.485 178.945 235.87 179.15C235.4 178.546 235.525 178.416 235.39 177.533C235.178 157.58 235.392 137.258 235.398 117.265Z" fill="white" fill-opacity="0.717647"/>
<path d="M235.374 43.5363C235.547 46.1243 235.662 49.0546 235.585 51.6519C235.466 52.9797 235.476 56.0945 235.692 57.3769L235.857 57.5215C236.212 57.4037 236.408 57.314 236.771 57.265C236.779 74.7306 236.959 92.5998 236.775 110.033L236.644 111.391L236.507 110.69C236.029 110.724 236.037 110.774 235.601 110.989C235.408 110.04 235.569 107.92 235.563 106.851C235.507 94.4984 235.545 82.1455 235.523 69.7933C235.515 65.803 235.565 61.6292 235.376 57.6517C235.23 53.5846 235.279 47.5708 235.374 43.5363Z" fill="white" fill-opacity="0.698039"/>
<path d="M403.958 215.533C404.21 217.307 404.014 219.052 404.163 220.788C404.672 226.651 404.385 232.529 404.081 238.394C404.055 238.915 404.115 239.503 404.335 239.979L404.653 240.175L404.976 240.013C405.297 238.937 404.956 234.868 404.934 233.368C404.865 229.145 404.912 224.925 405.073 220.707C405.111 219.505 405.148 216.521 405.307 215.464C405.605 225.52 405.377 237.65 405.289 247.732C405.073 248.442 405.166 248.641 404.696 248.889C404.311 248.492 404.248 248.403 403.938 247.942C403.663 237.717 403.887 225.824 403.958 215.533Z" fill="#FCFCFC" fill-opacity="0.388235"/>
<path d="M256.54 140.004C256.81 141.979 256.669 150.225 256.679 152.567C256.677 161.52 256.762 170.473 256.935 179.424C256.972 181.319 256.976 184.343 256.988 186.364C257.08 186.446 257.175 186.529 257.268 186.611C257.214 187.933 256.637 189.567 257.288 190.875L257.546 191.048C258.061 190.119 258.115 184.391 257.554 183.525C258.151 181.723 257.893 175.698 257.897 173.44L257.994 173.439C258.175 177.839 258.069 182.693 258.095 187.126C258.111 189.522 258.25 193.859 258.087 196.134C258.01 196.719 258.012 196.882 257.774 197.441C256.57 196.399 256.947 192.936 256.572 191.434L256.508 158.565C256.498 153.02 256.24 145.396 256.54 140.004Z" fill="#FCFCFC" fill-opacity="0.639216"/>
<path d="M77.5161 243.022C80.9 242.982 84.2842 242.976 87.6683 243.004C91.7904 243.27 96.5432 243.121 100.751 243.213C99.9736 243.78 99.7957 243.024 98.7622 243.566L98.7108 243.883C99.4545 244.514 99.9165 243.705 100.546 244.337C98.6247 244.421 85.5466 244.427 84.5137 243.905C84.691 243.429 84.57 243.653 85.1871 243.318C84.4996 243.016 78.355 243.617 77.5161 243.022Z" fill="white" fill-opacity="0.294118"/>
<path d="M179.254 172.755C179.605 173.49 179.73 180.489 179.856 182.173C179.757 181.746 179.795 181.517 179.529 181.302C179.326 182.244 179.485 185.209 179.625 186.185C179.638 185.538 179.611 183.82 179.79 183.31L179.973 183.485C179.96 184.433 179.8 186.055 180.259 186.783C180.59 185.554 180.076 184.594 180.154 183.752C180.432 180.751 179.858 176.227 180.322 173.361C180.521 175.145 180.443 177.637 180.496 179.499C180.632 184.312 180.804 189.434 180.674 194.242L180.385 194.26C179.178 193.425 180.639 191.232 179.27 189.656C179.128 184.878 179.046 177.477 179.254 172.755Z" fill="#FCFCFC" fill-opacity="0.654902"/>
<path d="M235.375 57.6517C235.565 61.6292 235.515 65.803 235.523 69.7933C235.545 82.1455 235.507 94.4984 235.563 106.851C235.569 107.92 235.408 110.04 235.601 110.989C236.037 110.774 236.029 110.724 236.507 110.69L236.644 111.391L236.775 110.033C236.959 112.028 236.86 114.624 236.842 116.67L236.404 117.124L236.029 117.038C235.694 116.368 235.728 116.125 235.666 115.356L235.591 115.945L235.593 115.86C235.537 116.392 235.515 116.738 235.398 117.265C235.099 101.735 235.565 86.0802 235.337 70.5396C235.275 66.3182 235.24 61.8673 235.375 57.6517Z" fill="#F3F3F3" fill-opacity="0.745098"/>
<path d="M200.17 19.7342C200.998 19.6524 201.806 19.6853 202.443 19.2157L202.473 18.8434C203.524 17.9783 213.841 17.9854 214.932 19.0012L214.841 19.2105L214.218 19.3418C214.553 19.6418 216.273 19.6169 216.993 19.7366C216.033 19.854 214.183 19.7852 213.145 19.7749C208.825 19.6072 204.284 19.9573 200.17 19.7342Z" fill="#F8FDFB" fill-opacity="0.737255"/>
<path d="M36.999 241.419C39.4401 241.411 66.2557 241.57 66.5491 241.729C63.9384 241.764 51.7253 241.487 50.3023 242.296C50.9995 242.463 55.5981 242.534 56.4982 242.514C59.5545 242.445 61.2184 242.665 64.133 242.951C60.8367 243.193 53.7594 243.05 50.3106 242.943C48.8401 242.564 46.9987 243.024 45.5908 242.56C45.6269 242.314 45.6656 242.068 45.7067 241.824C45.1338 241.485 44.6847 241.614 43.9315 241.621C42.0044 241.598 38.8103 241.673 36.999 241.419Z" fill="#FCFCFC" fill-opacity="0.627451"/>
<path d="M156.456 192.874L156.797 192.015L157.226 191.87C158.241 192.911 157.935 207.101 157.907 209.516C157.901 209.907 157.892 210.299 157.879 210.69L157.496 210.71C157.492 208.688 157.791 198.746 157.433 197.324C157.244 197.437 156.806 197.767 156.805 197.958C156.791 201.894 156.842 210.914 156.586 214.355C156.512 207.587 156.231 199.522 156.456 192.874Z" fill="#FCFCFC" fill-opacity="0.494118"/>
<path d="M124.708 186.77C126.959 186.813 135.63 186.734 137.137 187.444L137.263 187.658C136.607 187.925 136.601 187.917 135.891 188.004C137.693 188.082 140.304 188.117 142.037 188.292C139.618 188.648 128.207 188.299 125.778 188.016C126.086 187.708 126.06 187.724 126.191 187.305C125.734 186.865 125.449 186.937 124.708 186.77Z" fill="#FCFCFC" fill-opacity="0.890196"/>
<path d="M104.149 243.01C112.135 242.828 119.922 243.296 127.738 243.27C126.058 243.83 118.187 243.101 117.275 243.691L117.359 243.99C118.6 244.389 123.044 244.129 124.601 244.099L124.382 244.379C123.452 244.52 120.488 244.46 119.455 244.451C116.581 244.423 113.706 244.411 110.832 244.413L110.921 243.437L110.697 243.189L109.135 243.195C107.499 243.103 105.768 243.266 104.149 243.01Z" fill="#F8FDFB" fill-opacity="0.631373"/>
<path d="M179.273 209.748L179.731 209.609C179.576 208.815 179.504 209.059 179.801 208.442L179.566 208.665L179.589 208.496L179.901 208.454C180.317 209.093 180.06 209.05 180.217 209.95C180.598 209.926 180.43 209.998 180.712 209.704C180.711 211.47 180.823 215.497 180.674 217.092C180.191 218.519 180.572 220.626 179.895 221.467C179.087 220.288 179.158 211.635 179.273 209.748Z" fill="#F8FDFB" fill-opacity="0.207843"/>
<path d="M177.634 130.845C177.966 130.792 178.216 130.817 178.404 130.654L178.965 130.669C178.964 130.688 178.963 130.707 178.962 130.726C179.104 133.351 179.344 137.513 179.101 140.082C178.879 141.021 179.047 140.939 178.472 141.531L178.164 141.377C177.461 139.825 177.582 132.854 177.634 130.845Z" fill="white" fill-opacity="0.101961"/>
<path d="M235.39 177.533C235.525 178.416 235.4 178.546 235.87 179.15C236.485 178.945 236.334 178.929 236.806 178.278C236.816 180.03 236.997 188.376 236.729 189.715C236.558 189.133 236.505 188.746 236.453 188.141C236.072 188.5 236.025 189.132 235.971 189.69C235.882 189.388 235.838 189.286 235.797 188.975L235.571 188.845C235.553 189.499 235.555 190.874 235.414 191.451C235.263 186.976 235.334 182.019 235.39 177.533Z" fill="#F3F3F3" fill-opacity="0.670588"/>
<path d="M375.36 19.7419C377.55 19.7137 382.356 19.4993 384.237 20.0273C384.378 21.4218 384.975 21.1718 386.256 21.2974C385.086 21.5485 376.748 21.3196 375.419 21.1085C375.048 20.7089 375.271 20.2284 375.36 19.7419Z" fill="#FCFCFC" fill-opacity="0.968627"/>
<path d="M30.7134 241.374C32.5493 241.251 35.1104 241.379 36.9989 241.419C38.8102 241.673 42.0043 241.598 43.9314 241.62C44.2385 242.945 44.2107 242.719 45.6921 242.945C43.8312 242.963 36.3587 243.149 35.0297 242.647L34.9529 241.764C34.1059 241.346 31.7959 241.796 30.7134 241.374Z" fill="#F8FDFB" fill-opacity="0.521569"/>
<path d="M235.586 51.6519C235.753 50.1806 235.439 47.884 236.052 47.1161L236.782 47.4186C236.782 50.5433 236.878 54.1846 236.772 57.265C236.409 57.314 236.213 57.4037 235.858 57.5215L235.693 57.3769C235.477 56.0945 235.467 52.9797 235.586 51.6519Z" fill="#F8FDFB" fill-opacity="0.517647"/>
<path d="M349.302 128.969C349.404 129.543 349.431 129.841 349.667 130.387C350.084 130.44 350.308 130.464 350.727 130.47C350.528 133.273 350.79 136.489 350.677 139.345L350.55 139.291C350.258 139.405 350.264 139.425 350.08 139.661C350.383 139.011 349.963 139.733 349.955 138.488C349.792 138.636 349.872 138.548 349.705 138.802L349.568 139.014C349.564 138.159 349.525 137.463 349.461 136.61C349.267 135.18 349.237 130.427 349.302 128.969Z" fill="#FCFCFC" fill-opacity="0.278431"/>
<path d="M157.879 210.69C157.683 221.106 158.165 232.694 157.757 243.163C157.741 243.258 157.724 243.355 157.708 243.449L157.779 243.167L157.63 243.544C157.264 243.326 156.97 243.236 156.565 243.119C156.466 242.524 156.345 241.824 156.614 241.298L157.373 241.675L157.615 241.53C158.11 239.808 157.539 229.662 157.51 227.061C157.448 221.673 157.491 216.114 157.496 210.71L157.879 210.69Z" fill="#FCFCFC" fill-opacity="0.909804"/>
<path d="M349.293 145.541C349.477 142.614 349.102 139.382 349.461 136.61C349.525 137.463 349.564 138.159 349.568 139.014L349.705 138.802C349.872 138.548 349.792 138.636 349.955 138.488C349.963 139.733 350.382 139.011 350.08 139.661C350.263 139.425 350.257 139.405 350.55 139.291L350.677 139.345C350.697 141.114 350.842 144.896 350.679 146.564C350.524 147.044 350.546 147.282 350.536 147.778L350.239 147.948C350.187 147.314 350.183 146.799 350.179 146.162L349.9 146.06L349.685 146.17C350.179 147.08 350.092 146.667 349.975 147.74C349.527 147.337 349.398 146.159 349.293 145.541Z" fill="#F8FDFB" fill-opacity="0.254902"/>
<path d="M253.396 349.253C255.12 349.104 256.352 349.108 258.032 349.541L257.841 349.832L257.863 350.515C258.851 350.568 262.251 350.648 262.961 350.961C262.868 351.376 262.739 351.876 262.676 352.29C261.001 352.281 260.137 352.659 259.502 351.031C257.472 350.441 255.437 351.08 253.739 350.511L253.731 350.189C254.275 349.955 254.372 349.985 254.775 349.582L253.396 349.253Z" fill="#FCFCFC" fill-opacity="0.901961"/>
<path d="M87.6685 243.004C92.1744 242.852 99.6338 242.826 104.15 243.01C105.768 243.266 107.499 243.103 109.135 243.195C109.276 243.613 109.401 243.994 109.57 244.403L103.675 244.401C103.582 243.988 103.566 244.052 103.337 243.669C102.524 243.847 102.771 244.111 102.05 243.832C102.582 243.673 102.99 243.623 103.35 243.217L100.751 243.213C96.5433 243.121 91.7906 243.27 87.6685 243.004Z" fill="#FCFCFC" fill-opacity="0.509804"/>
<path d="M180.699 238.773L181.005 238.6L180.991 238.769C180.923 239.747 180.829 241.76 181.193 242.611L181.515 242.689C181.9 242.034 181.777 238.348 181.975 237.289C182.004 239.497 182.067 241.703 182.165 243.909C182.18 245.605 182.317 253.251 182.098 254.378L181.879 254.467C181.667 252.63 182.145 247.006 181.716 246.121L180.65 246.123C180.639 243.792 180.568 241.06 180.699 238.773Z" fill="#F8FDFB" fill-opacity="0.760784"/>
<path d="M349.297 221.507C349.564 220.546 349.328 220.175 349.731 219.003C350.116 218.697 350.217 218.586 350.673 218.382C350.761 221.11 350.713 223.867 350.689 226.597C350.219 226.544 349.975 226.48 349.515 226.573L349.295 226.931C349.324 225.157 349.297 223.288 349.297 221.507Z" fill="#F8FDFB" fill-opacity="0.584314"/>
<path d="M349.295 226.931L349.515 226.573C349.975 226.48 350.219 226.544 350.689 226.597C350.709 229.67 350.673 232.743 350.576 235.815C350.231 233.608 350.064 233.226 350.483 230.986C350.017 230.74 350.267 230.821 349.689 230.869C349.584 234.126 349.638 236.787 349.306 240.153C349.112 236.243 349.279 230.942 349.295 226.931Z" fill="#FCFCFC" fill-opacity="0.639216"/>
<path d="M180.649 246.123L181.716 246.121C182.144 247.006 181.666 252.63 181.878 254.467L181.704 254.717C181.257 254.817 181.474 254.815 181.049 254.66C180.513 253.477 180.654 247.819 180.649 246.123Z" fill="#FCFCFC" fill-opacity="0.745098"/>
<path d="M274.022 353.872C275.321 353.786 280.443 353.79 281.544 354.141C281.247 354.53 281.08 354.84 280.868 355.276C279.921 355.262 279.088 355.278 278.144 355.31C277.23 355.278 276.275 355.286 275.363 355.242C273.832 355.167 274.978 354.711 274.022 353.872Z" fill="#F8FDFB" fill-opacity="0.796078"/>
<path d="M179.274 200.339C179.724 201.818 179.139 202.806 180.291 203.782L180.681 203.705L180.711 209.704C180.429 209.998 180.598 209.926 180.217 209.95C180.06 209.05 180.317 209.093 179.9 208.454L179.588 208.496L179.566 208.665L179.801 208.442C179.504 209.059 179.576 208.815 179.731 209.609L179.273 209.748C179.218 206.613 179.219 203.475 179.274 200.339Z" fill="#FCFCFC" fill-opacity="0.407843"/>
<path d="M403.937 256.003C403.931 257.717 404.099 260.659 403.419 262.119C402.318 262.927 403.157 261.863 402.296 262.435C402.155 261.336 402.239 257.408 402.598 256.412L402.798 256.767L403.231 256.856C403.887 256.543 403.627 256.785 403.937 256.003Z" fill="#FCFCFC" fill-opacity="0.858824"/>
<path d="M256.572 191.434C256.947 192.936 256.57 196.399 257.774 197.441C258.012 196.882 258.01 196.719 258.087 196.134L258.167 200.661L258.143 201.804C257.635 201.743 257.401 201.806 256.893 201.86C256.55 201.443 256.57 192.625 256.572 191.434Z" fill="#FCFCFC" fill-opacity="0.545098"/>
<path d="M235.366 38.4333C235.448 39.1371 235.549 41.3187 235.644 41.7418C236.14 41.5055 236.122 41.4321 236.608 41.4476C236.927 43.0957 236.745 45.6337 236.781 47.4186L236.051 47.1161C235.438 47.884 235.753 50.1806 235.586 51.6519C235.662 49.0546 235.547 46.1243 235.374 43.5363L235.335 40.9421L235.366 38.4333Z" fill="#FCFCFC" fill-opacity="0.352941"/>
<path d="M280.868 355.276C282.966 355.28 286.108 355.183 288.118 355.308C289.29 355.425 290.463 355.518 291.637 355.588C291.383 355.796 291.373 355.804 291.083 355.983C291.627 356.326 291.532 356.119 291.7 356.566C292.228 356.659 293.035 356.754 293.506 356.865C292.182 356.859 287.896 357.155 287.092 356.613L287.176 355.681C286.041 355.084 280.189 355.77 278.144 355.31C279.088 355.278 279.921 355.262 280.868 355.276Z" fill="#FCFCFC" fill-opacity="0.231373"/>
<path d="M403.937 247.942C404.248 248.404 404.31 248.492 404.695 248.889C405.165 248.641 405.072 248.442 405.288 247.732C405.321 249.369 405.659 253.805 404.631 254.892L403.925 255.068C403.879 252.739 403.927 250.281 403.937 247.942Z" fill="white" fill-opacity="0.298039"/>
<path d="M256.496 136.288C256.306 137.347 256.248 138.218 256.165 139.288C256.127 138.465 256.092 137.642 256.064 136.818L255.756 136.916C255.288 137.948 255.846 138.698 255.417 139.644C255.308 138.137 254.646 132.155 255.639 131.252C256.121 131.433 256.185 131.589 256.526 131.982C256.528 133.179 256.59 135.155 256.496 136.288Z" fill="#FCFCFC" fill-opacity="0.2"/>
<path d="M307.149 355.248L307.072 354.913C307.717 354.887 307.508 355.024 307.844 354.681C307.57 353.868 307.429 354.776 306.632 354.195C307.324 353.798 312.303 353.766 313.317 353.88C313.104 354.29 313.122 354.072 313.21 354.536C312.335 355.598 311.357 355.308 310.032 355.306L307.149 355.248Z" fill="#FCFCFC" fill-opacity="0.835294"/>
<path d="M349.282 250.632C349.366 251.991 349.397 255.237 349.159 256.537C348.437 256.598 348.419 256.618 347.719 256.485C347.727 255.437 347.749 254.275 347.793 253.243C347.894 250.997 348.469 251.94 349.282 250.632Z" fill="#FCFCFC" fill-opacity="0.878431"/>
<path d="M263.969 352.275C265.593 352.13 269.001 352.068 270.517 352.576C270.231 353.175 270.09 353.177 270.229 353.655C270.632 353.735 270.957 353.792 271.364 353.846C270.269 353.945 267.049 353.872 265.998 353.711C265.506 353.227 265.677 353.528 265.631 352.695C265.115 352.279 264.715 352.362 263.969 352.275Z" fill="#FCFCFC" fill-opacity="0.890196"/>
<path d="M288.118 355.308C290.824 355.28 293.528 355.276 296.234 355.296L295.988 355.604L296.087 355.82C295.861 356.268 295.815 356.264 295.442 356.611L294.938 356.859L293.506 356.865C293.034 356.754 292.228 356.659 291.699 356.566C291.532 356.119 291.627 356.326 291.082 355.983C291.372 355.804 291.383 355.796 291.637 355.588C290.463 355.518 289.289 355.425 288.118 355.308Z" fill="#F8FDFB" fill-opacity="0.333333"/>
<path d="M307.148 355.248L310.032 355.306C308.187 355.534 303.369 355.302 302.28 355.584V356.268C301.47 356.947 296.426 356.824 294.938 356.859L295.442 356.611C296.333 356.584 299.02 356.094 300.074 355.973C299.727 355.796 299.877 355.865 299.498 355.709L299.221 355.596C299.673 355.481 300.133 355.401 300.593 355.31L307.148 355.248Z" fill="#FCFCFC" fill-opacity="0.282353"/>
<path d="M216.992 19.7367C218.099 19.7245 220.785 19.4901 221.53 20.2488L221.511 20.7541C221.033 21.1634 221.306 20.9932 220.533 21.0894C219.602 21.1559 218.255 21.3642 217.369 21.089C216.99 20.9706 216.887 20.4424 216.75 20.0636C216.194 19.8337 214.659 19.7128 214.181 20.0522L214.231 21.2158L214.04 21.29C213.994 20.6385 213.979 20.6202 213.796 20.0326L213.145 19.775C214.183 19.7853 216.032 19.8541 216.992 19.7367Z" fill="#F8FDFB" fill-opacity="0.972549"/>
<path d="M258.167 200.661L258.435 200.75C258.911 200.491 258.982 200.486 259.522 200.5L259.912 200.738C259.813 201.058 259.724 201.36 259.702 201.695C260.575 202.064 261.325 201.594 262.529 201.844L261.493 202.046C260.751 202.981 259.756 203.75 258.54 203.376C258.012 202.751 258.189 202.84 258.143 201.804L258.167 200.661Z" fill="#FCFCFC" fill-opacity="0.945098"/>
<path d="M399.311 273.519C399.17 271.966 398.833 270.45 399.396 269.059C399.975 268.648 400.005 268.811 400.921 268.855C400.9 270.093 400.961 271.388 400.598 272.559L400.338 272.712L399.614 272.36C399.422 272.838 399.406 273.019 399.311 273.519Z" fill="#F8FDFB" fill-opacity="0.968627"/>
<path d="M340.681 124.589C341.09 124.492 341.495 124.385 341.899 124.268C342.213 123.777 342.266 123.685 342.677 123.238C343.736 122.816 344.873 122.961 346.045 122.99L346.083 124.611C344.434 124.489 342.365 124.569 340.681 124.589Z" fill="#F8FDFB" fill-opacity="0.764706"/>
<path d="M323.451 352.31C323.459 351.548 323.326 351.499 323.687 351.009C324.843 350.493 325.905 350.749 327.21 350.85C327.692 351.201 327.694 351.156 327.878 351.715C327.252 352.497 324.5 352.3 323.451 352.31Z" fill="#DDFAEC" fill-opacity="0.901961"/>
<path d="M182.299 261.401C182.529 260.479 182.497 260.308 183.196 259.758L183.488 259.848C183.854 261.012 183.801 263.107 183.718 264.355C181.777 264.823 182.237 262.667 182.299 261.401Z" fill="#FCFCFC" fill-opacity="0.792157"/>
<path d="M244.412 344.771L245.878 344.845C245.283 345.004 244.916 345.025 244.454 345.373L244.539 345.813C246.421 347.067 248.956 344.291 249.272 347.767C248.123 347.737 247.288 347.727 246.148 347.547C245.733 346.995 245.866 347.313 245.874 346.513C245.285 346.164 245.265 346.285 244.475 346.259L244.412 344.771Z" fill="#FCFCFC" fill-opacity="0.984314"/>
<path d="M149.84 188.31C150.99 188.288 153.379 188.066 154.212 188.823L154.184 189.244C153.862 189.524 153.868 189.534 153.506 189.756C152.857 189.843 150.976 189.793 150.222 189.789C150.214 189.134 150.086 188.876 149.84 188.31Z" fill="#FCFCFC" fill-opacity="0.788235"/>
<path d="M116.928 180.783C116.874 179.775 116.798 178.755 117.26 177.867L117.641 177.806C118.29 178.456 118.1 178.335 118.382 179.348C118.425 180.339 118.475 181.33 118.484 182.321C117.026 182.087 117.26 182.155 116.928 180.783Z" fill="#F8FDFB" fill-opacity="0.72549"/>
<path d="M179.273 194.291C180.415 195.634 179.419 196.171 180.334 197.34L180.675 197.437C180.683 198.447 180.719 199.627 180.677 200.618C179.403 200.322 179.495 199.277 179.273 198.096C179.204 196.909 179.257 195.499 179.273 194.291Z" fill="#F8FDFB" fill-opacity="0.533333"/>
<path d="M179.27 189.656C180.639 191.232 179.178 193.425 180.385 194.26L180.674 194.242C180.686 195.283 180.723 196.403 180.675 197.437L180.334 197.34C179.419 196.171 180.415 195.634 179.273 194.291C179.186 192.886 179.255 191.092 179.27 189.656Z" fill="#FCFCFC" fill-opacity="0.607843"/>
<path d="M320.66 353.907C320.529 353.267 320.476 353.138 320.539 352.467L321.295 352.231C321.862 351.626 321.741 351.35 321.888 350.412C321.914 350.455 321.941 350.497 321.969 350.537C322.021 351.039 322.949 350.297 323.148 350.285C323.32 350.437 323.489 350.588 323.661 350.741C325.433 350.749 327.863 350.489 329.547 350.67C328.938 350.729 327.775 350.874 327.21 350.85C325.905 350.749 324.842 350.493 323.687 351.009C323.326 351.499 323.459 351.548 323.451 352.31C322.733 352.322 321.787 352.227 321.249 352.622C321.372 353.021 321.43 353.157 321.61 353.536C321.275 353.917 321.297 353.8 320.66 353.907Z" fill="#DDFAEC" fill-opacity="0.988235"/>
<path d="M394.661 287.133C394.53 285.996 394.27 283.417 395.082 282.619C395.31 282.395 395.885 282.462 396.29 282.443C396.325 284.325 396.67 284.827 394.901 285.837C394.734 286.422 394.726 286.549 394.661 287.133Z" fill="#FCFCFC" fill-opacity="0.956863"/>
<path d="M116.928 180.783C117.26 182.155 117.027 182.087 118.484 182.321C118.594 183.677 118.458 183.474 119.841 183.965C120.121 184.388 120.074 184.708 120.09 185.219C119.461 185.206 119.312 185.225 118.69 185.037C118.58 183.962 118.173 183.544 117.139 183.445C116.783 182.9 116.918 181.518 116.928 180.783Z" fill="#CFB4B1" fill-opacity="0.807843"/>
<path d="M147.554 188.308C148.392 188.276 148.997 188.241 149.84 188.31C150.086 188.876 150.214 189.134 150.223 189.789C148.427 189.77 146.632 189.724 144.837 189.651C145.598 189.56 146.075 189.514 146.812 189.321C146.775 189.031 146.759 188.876 146.741 188.577L147.554 188.308Z" fill="#F8FDFB" fill-opacity="0.854902"/>
<path d="M371.781 21.2176C371.783 20.4611 371.791 20.4363 372.188 19.9683C373.098 19.5783 374.324 19.7207 375.36 19.7419C375.271 20.2284 375.048 20.7089 375.419 21.1085C373.997 21.2299 373.198 21.2682 371.781 21.2176Z" fill="#FAF1F4" fill-opacity="0.85098"/>
<path d="M233.881 34.7731C234.908 34.8813 234.777 34.6948 235.285 35.2719C235.474 36.0706 235.372 36.7745 235.323 37.5996L235.119 37.8434L234.297 37.9946L233.99 37.7764C233.605 36.9166 233.813 35.7667 233.881 34.7731Z" fill="#F8FDFB" fill-opacity="0.803922"/>
<path d="M388.625 298.941C388.605 298.862 388.583 298.782 388.563 298.701C388.428 296.687 388.444 296.334 390.237 296.062C390.265 297.001 390.438 298.066 389.968 298.8C389.498 299.076 389.176 298.985 388.625 298.941Z" fill="#FCFCFC" fill-opacity="0.952941"/>
<path d="M168.375 125.986C169.598 125.931 170.007 126.19 170.493 124.99C171.371 124.282 173.076 124.571 174.284 124.627C173.289 125 173.169 125.155 172.351 125.819L172.437 125.972C171.778 125.988 169.093 125.991 168.683 126.25L168.375 125.986Z" fill="#FAF1F4" fill-opacity="0.760784"/>
<path d="M179.273 198.096C179.495 199.277 179.403 200.322 180.677 200.618L180.681 203.705L180.291 203.782C179.139 202.806 179.724 201.818 179.275 200.339C179.203 199.73 179.26 198.742 179.273 198.096Z" fill="#F8FDFB" fill-opacity="0.443137"/>
<path d="M185.251 273.571C186.143 273.451 186.07 273.301 186.614 273.68C186.982 274.493 186.81 275.475 186.756 276.408C186.16 276.431 186.153 276.443 185.578 276.312C185.137 275.646 185.269 274.473 185.251 273.571Z" fill="#FCFCFC" fill-opacity="0.941176"/>
<path d="M12.0874 221.725C12.9227 221.729 12.9479 221.582 13.4615 221.983L13.7152 223.104C13.7205 223.675 13.7517 224.391 13.7009 224.945L13.4379 224.427C12.9397 224.478 12.9733 224.476 12.4942 224.322C12.0279 223.592 12.1176 222.639 12.0874 221.725Z" fill="#F8FDFB" fill-opacity="0.815686"/>
<path d="M239.887 344.597C241.331 344.414 242.944 344.636 244.412 344.771L244.474 346.259C243.557 346.247 242.805 346.281 241.907 346.077L241.736 345.755C241.921 345.402 242.246 345.045 242.349 344.841C241.532 344.853 240.701 344.708 239.887 344.597Z" fill="#F8FDFB" fill-opacity="0.827451"/>
<path d="M373.521 320.415L373.767 319.996L374.505 319.931C374.943 319.234 374.479 318.423 375.048 317.566C375.614 317.278 375.957 317.413 376.594 317.516C376.578 318.308 376.707 318.367 376.348 318.921C375.471 318.899 375.729 318.78 375.124 319.219C374.884 319.744 374.916 319.718 374.957 320.302C374.491 320.548 374.063 320.449 373.521 320.415Z" fill="#F8FDFB" fill-opacity="0.968627"/>
<path d="M391.739 292.945C391.697 292.128 391.574 291.239 391.816 290.483C392.4 289.983 392.287 290.152 393.29 290.144C393.28 291.077 393.399 292.009 392.913 292.745C392.396 293.023 392.32 292.969 391.739 292.945Z" fill="#FCFCFC" fill-opacity="0.929412"/>
<path d="M100.751 243.213L103.35 243.217C102.99 243.623 102.582 243.673 102.05 243.832C102.771 244.111 102.524 243.847 103.337 243.669C103.566 244.052 103.582 243.988 103.675 244.401L100.546 244.337C99.9167 243.705 99.4547 244.514 98.7109 243.883L98.7624 243.566C99.7959 243.024 99.9737 243.78 100.751 243.213Z" fill="#FCFCFC" fill-opacity="0.415686"/>
<path d="M349.281 127.517C349.687 127.708 349.826 127.671 350.265 127.627C351.096 128.174 350.761 129.476 350.727 130.47C350.308 130.464 350.084 130.44 349.666 130.387C349.43 129.841 349.404 129.543 349.301 128.969L349.281 127.517Z" fill="#F8FDFB" fill-opacity="0.854902"/>
<path d="M290.026 173.218C289.826 170.962 290.068 172.055 291.268 171.247C291.415 171.148 290.973 170.932 291.459 170.146L291.897 170.191C291.697 170.604 291.697 170.582 291.641 171.035L292.014 171.269C292.784 171.125 292.468 171.294 293.016 170.784L293.026 171.396L292.728 171.652C292.05 171.57 292.062 171.447 291.625 171.737C291.397 172.379 291.399 172.35 291.405 173.03C290.889 173.285 290.598 173.227 290.026 173.218Z" fill="#FCFCFC" fill-opacity="0.972549"/>
<path d="M267.137 292.971C267.766 292.981 268.232 292.904 268.734 293.249C268.698 294.148 268.569 293.914 269.027 294.445C269.787 294.535 271.198 294.654 271.902 294.783C270.737 294.943 268.184 295.102 267.282 294.271C267.083 294.088 267.145 293.283 267.137 292.971Z" fill="#FCFCFC" fill-opacity="0.937255"/>
<path d="M233.742 32.6589C233.821 33.377 233.928 34.0536 233.881 34.7731C233.813 35.7667 233.605 36.9166 233.99 37.7764L234.297 37.9946L235.12 37.8434C234.93 40.4811 234.43 38.6572 233.92 40.9314C233.629 39.9968 233.653 33.7937 233.742 32.6589Z" fill="#FCFCFC" fill-opacity="0.921569"/>
<path d="M296.235 355.296L300.593 355.31C300.133 355.401 299.673 355.481 299.221 355.596L299.498 355.709C299.877 355.865 299.728 355.796 300.075 355.973C299.02 356.094 296.334 356.584 295.442 356.611C295.815 356.264 295.862 356.268 296.088 355.82L295.989 355.604L296.235 355.296Z" fill="#FCFCFC" fill-opacity="0.309804"/>
<path d="M239.784 262.457L240.028 263.693C240.659 264.097 240.54 263.887 241.274 264.038C241.391 264.546 241.406 264.534 241.361 265.048C241.028 265.746 241.283 265.514 240.605 265.8C240.202 265.734 240.095 265.79 239.857 265.593C239.829 264.266 239.675 263.958 239.784 262.457Z" fill="#FCFCFC" fill-opacity="0.917647"/>
<path d="M387.256 300.718C387.157 300 387 299.643 387.547 299.129L387.928 299.221C388.547 299.824 388.361 299.74 388.575 300.764L388.45 301.363L388.093 301.597L387.551 301.447C387.367 301.107 387.355 301.091 387.256 300.718Z" fill="#FCFCFC" fill-opacity="0.945098"/>
<path d="M176.117 125.995C176.569 126.015 177.066 126.011 177.501 126.099C177.597 126.976 177.767 128.032 177.675 128.89C177.583 128.512 177.517 128.312 177.384 127.945L176.309 127.506C175.913 126.992 176.06 127 176.075 126.159L176.117 125.995Z" fill="#FCFCFC" fill-opacity="0.819608"/>
<path d="M229.185 337.209C230.052 337.141 230.237 336.957 230.766 337.34C230.806 337.923 230.808 338.129 230.772 338.709L228.485 338.508C228.578 338.199 228.624 338.294 229.049 338.032L229.185 337.209Z" fill="#F8FDFB" fill-opacity="0.92549"/>
<path d="M43.9312 241.621C44.6844 241.614 45.1334 241.485 45.7064 241.824C45.6652 242.068 45.6265 242.314 45.5904 242.56C46.9984 243.024 48.8398 242.564 50.3103 242.943C48.7208 242.992 47.2831 242.978 45.6918 242.945C44.2104 242.719 44.2383 242.945 43.9312 241.621Z" fill="#FCFCFC" fill-opacity="0.568627"/>
<path d="M12.1237 218.366C12.2549 219.836 11.9711 219.737 13.3632 220.487C13.8453 221.088 13.7345 222.302 13.7152 223.104L13.4615 221.983C12.9479 221.582 12.9227 221.729 12.0874 221.725L12.1237 218.366Z" fill="#F8FDFB" fill-opacity="0.92549"/>
<path d="M361.409 332.749C361.359 332.12 361.316 331.939 361.452 331.303C362.069 330.934 362.186 331.096 363.071 331.14C362.98 332.152 363.162 332.122 362.613 332.656L361.409 332.749Z" fill="#FCFCFC" fill-opacity="0.976471"/>
<path d="M346.045 122.99C346.541 122.98 347.073 122.993 347.559 122.925C347.576 123.431 347.62 124.114 347.6 124.603C347.166 124.636 346.535 124.614 346.083 124.611L346.045 122.99Z" fill="#E9FCFB" fill-opacity="0.901961"/>
<path d="M382.604 309.958C382.499 308.087 382.027 307.019 384.149 306.722C384.056 308.172 384.284 308.097 382.908 308.737C382.695 309.224 382.685 309.442 382.604 309.958Z" fill="white" fill-opacity="0.960784"/>
<path d="M347.6 124.603L349.324 124.586C349.286 125.007 349.209 125.681 349.203 126.082C348.535 126.079 348.098 126.16 347.557 125.794C347.372 125.132 347.424 125.347 347.6 124.603Z" fill="#E9FCFB" fill-opacity="0.862745"/>
<path d="M287.039 176.297C286.938 175.659 286.876 175.479 286.991 174.828C287.543 174.444 287.66 174.606 288.519 174.639L288.449 175.857C287.91 176.325 287.898 176.182 287.039 176.297Z" fill="#FCFCFC" fill-opacity="0.952941"/>
<path d="M353.783 338.653C353.771 338.125 353.781 337.861 353.821 337.35C354.382 336.975 354.555 337.137 355.404 337.167C355.343 338.052 355.499 338.076 355.039 338.593C354.607 338.619 354.216 338.647 353.783 338.653Z" fill="#FCFCFC" fill-opacity="0.945098"/>
<path d="M167.101 127.482C167.273 127.416 167.193 127.473 167.309 127.27C167 126.861 167.04 126.871 167.018 126.349C167.501 125.868 167.458 126.032 168.375 125.986L168.683 126.25C168.572 127.173 168.74 127.078 168.217 127.547C167.865 127.532 167.443 127.531 167.101 127.482Z" fill="#FCFCFC" fill-opacity="0.901961"/>
<path d="M337.042 279.205C337.097 278.354 337.143 277.503 337.182 276.65L337.47 276.417C338.174 276.554 337.898 276.38 338.325 276.951L338.135 277.522L338.396 277.866C337.926 278.368 337.553 278.741 337.042 279.205Z" fill="#FCFCFC" fill-opacity="0.0431373"/>
<path d="M154.899 189.757C155.732 189.823 155.836 189.678 156.308 190.116L156.42 191.331C155.991 191.347 155.583 191.319 155.156 191.298C154.736 190.79 154.901 190.624 154.899 189.757Z" fill="#FCFCFC" fill-opacity="0.831373"/>
<path d="M194.391 297.6H195.839L195.802 299.246C195.431 299.225 195.061 299.201 194.69 299.175C194.252 298.667 194.415 298.481 194.391 297.6Z" fill="#E9FCFB" fill-opacity="0.898039"/>
<path d="M209.604 320.542C210.489 320.439 210.388 320.296 210.92 320.685L211.084 321.931C210.563 321.946 210.259 321.94 209.739 321.911C209.374 321.355 209.519 321.401 209.604 320.542Z" fill="#F8FDFB" fill-opacity="0.878431"/>
<path d="M212.542 324.958C213.526 324.988 213.594 324.809 214.121 325.311C214.135 325.664 214.161 326.061 214.161 326.41C213.749 326.398 213.338 326.382 212.927 326.357C212.463 325.888 212.616 325.825 212.542 324.958Z" fill="#FCFCFC" fill-opacity="0.14902"/>
<path d="M329.315 135.243C329.377 134.667 329.351 134.069 329.71 133.662L330.995 133.585C330.94 134.446 331.094 134.626 330.646 135.108C330.202 135.156 329.759 135.201 329.315 135.243Z" fill="#FCFCFC" fill-opacity="0.603922"/>
<path d="M174.609 124.568C175.531 124.593 175.601 124.422 176.07 124.894L176.117 125.995L176.075 126.159C175.539 126.011 175.147 126.032 174.587 126.003L174.609 124.568Z" fill="#FCFCFC" fill-opacity="0.886275"/>
<path d="M214.161 326.41C214.712 326.448 215.141 326.446 215.672 326.615L215.549 327.956C214.694 327.892 214.728 328.035 214.193 327.595L214.161 326.41Z" fill="#FAF1F4" fill-opacity="0.137255"/>
<path d="M271.828 191.407C271.866 190.442 271.693 190.425 272.187 189.896L273.326 189.881L273.233 191.065C272.699 191.51 272.705 191.359 271.828 191.407Z" fill="#FCFCFC" fill-opacity="0.921569"/>
<path d="M285.452 177.76C285.66 176.869 285.242 176.798 285.841 176.132C286.442 176.167 286.519 176.259 287.051 176.533L286.944 177.451C286.378 177.869 286.315 177.723 285.452 177.76Z" fill="#FFFEFF" fill-opacity="0.956863"/>
<path d="M215.671 326.615C216.446 326.46 216.448 326.317 216.992 326.595C216.986 327.128 217.002 327.47 217.041 328.005L215.548 327.956L215.671 326.615Z" fill="#F8FDFB" fill-opacity="0.941176"/>
<path d="M235.12 37.8434L235.323 37.5996L235.366 38.4334L235.336 40.9421L233.92 40.9314C234.43 38.6572 234.93 40.4812 235.12 37.8434Z" fill="#F8FDFB" fill-opacity="0.980392"/>
<path d="M280.838 182.206L280.896 181.143C281.378 180.667 281.501 180.836 282.421 180.793C282.366 181.675 282.526 181.722 282.06 182.19L280.838 182.206Z" fill="#FCFCFC" fill-opacity="0.952941"/>
<path d="M262.693 290.023C263.546 290.075 263.602 289.932 264.147 290.36C264.203 290.811 264.238 291.096 264.252 291.557L262.727 291.531L262.693 290.023Z" fill="#F8FDFB" fill-opacity="0.894118"/>
<path d="M279.388 183.852C279.412 182.948 279.251 182.85 279.697 182.308L280.838 182.206C280.816 183.085 280.983 183.235 280.538 183.696L279.388 183.852Z" fill="#FCFCFC" fill-opacity="0.952941"/>
<path d="M154.838 139.766C154.896 138.979 154.766 138.872 155.161 138.365L156.368 138.218C156.335 139.175 156.506 139.172 156.016 139.693L154.838 139.766Z" fill="#F8FDFB" fill-opacity="0.831373"/>
<path d="M246.046 273.277C246.89 273.303 246.987 273.146 247.441 273.578L247.504 274.801L246.306 274.741C245.927 274.293 246.066 274.033 246.046 273.277Z" fill="#FAF1F4" fill-opacity="0.964706"/>
<path d="M274.798 188.283L274.853 187.188C275.323 186.717 275.446 186.893 276.371 186.877C276.293 187.753 276.45 187.775 275.974 188.232L274.798 188.283Z" fill="#FCFCFC" fill-opacity="0.921569"/>
<path d="M242.918 268.633L244.297 268.756L244.168 270.099C243.672 270.452 243.688 270.319 242.912 270.293C242.898 269.751 242.912 269.178 242.918 268.633Z" fill="#E9FCFB" fill-opacity="0.858824"/>
<path d="M283.889 179.25C283.936 178.412 283.792 178.395 284.216 177.876L285.452 177.76C285.387 178.654 285.547 178.701 285.075 179.186L283.889 179.25Z" fill="#FCFCFC" fill-opacity="0.968627"/>
<path d="M18.2109 198.38L18.27 197.635C18.3289 196.857 18.3277 196.145 19.126 195.88C19.7191 196.481 19.533 196.249 19.7618 197.157C18.5529 197.662 18.7108 197.422 18.2109 198.38Z" fill="#FCFCFC" fill-opacity="0.0509804"/>
<path d="M142.74 151.864L142.815 150.778C143.216 150.25 143.328 150.407 144.23 150.256C144.183 151.099 144.33 151.275 143.904 151.777C143.519 151.807 143.124 151.842 142.74 151.864Z" fill="#F8FDFB" fill-opacity="0.835294"/>
<path d="M174.461 124.512L174.609 124.568L174.586 126.003L172.437 125.972L172.351 125.819C173.169 125.154 173.289 125 174.284 124.627L174.461 124.512Z" fill="#F8FDFB" fill-opacity="0.788235"/>
<path d="M113.926 101.949L113.898 100.895C114.26 100.203 113.998 100.385 114.599 100.186C115.111 100.466 115.065 100.496 115.339 101.029L115.15 101.629C114.602 101.9 114.52 101.875 113.926 101.949Z" fill="#F8FDFB" fill-opacity="0.105882"/>
<path d="M109.135 243.195L110.697 243.189L110.921 243.437L110.832 244.413L109.57 244.403C109.401 243.994 109.276 243.613 109.135 243.195Z" fill="#FCFCFC" fill-opacity="0.576471"/>
<path d="M39.3634 177.525C38.9654 177.319 38.7958 177.319 38.3559 177.221L38.1113 176.747C38.6326 176.258 38.8206 176.41 39.6917 176.34C39.6147 176.74 39.5897 177.281 39.3634 177.525Z" fill="white" fill-opacity="0.0509804"/>
<path d="M309.736 75.6744C308.605 75.5369 308.822 75.7462 308.276 75.084L308.332 74.6933C308.941 74.3239 308.877 74.4691 309.77 74.5529L309.736 75.6744Z" fill="#FCFCFC" fill-opacity="0.105882"/>
</svg>
